<?xml version="1.0" encoding="UTF-8" standalone="no"?>
<!-- Created with Inkscape (http://www.inkscape.org/) -->

<svg
   width="16.208603mm"
   height="25.184317mm"
   viewBox="0 0 16.208603 25.184317"
   version="1.1"
   id="svg1"
   xml:space="preserve"
   inkscape:version="1.3.2 (091e20e, 2023-11-25, custom)"
   sodipodi:docname="character.svg"
   xmlns:inkscape="http://www.inkscape.org/namespaces/inkscape"
   xmlns:sodipodi="http://sodipodi.sourceforge.net/DTD/sodipodi-0.dtd"
   xmlns="http://www.w3.org/2000/svg"
   xmlns:svg="http://www.w3.org/2000/svg"><sodipodi:namedview
     id="namedview1"
     pagecolor="#505050"
     bordercolor="#eeeeee"
     borderopacity="1"
     inkscape:showpageshadow="0"
     inkscape:pageopacity="0"
     inkscape:pagecheckerboard="0"
     inkscape:deskcolor="#505050"
     inkscape:document-units="mm"
     inkscape:zoom="0.76702441"
     inkscape:cx="342.88348"
     inkscape:cy="507.80652"
     inkscape:window-width="1920"
     inkscape:window-height="1057"
     inkscape:window-x="-8"
     inkscape:window-y="-8"
     inkscape:window-maximized="1"
     inkscape:current-layer="layer1" /><defs
     id="defs1" /><g
     inkscape:label="Layer 1"
     inkscape:groupmode="layer"
     id="layer1"
     transform="translate(-113.81536,-154.46235)"><rect
       inkscape:export-ydpi="292.73001"
       inkscape:export-xdpi="292.73001"
       inkscape:export-filename="D:\xampp\htdocs\proyectos\darellanodev.github.io\img\icons\jetpack.png"
       y="16.255312"
       x="-59.534962"
       height="251.93195"
       width="251.93195"
       id="rect1112"
       style="fill:none;fill-opacity:1;stroke:none;stroke-width:4.08648;stroke-opacity:1" /><path
       style="fill:#000000;fill-opacity:0;stroke-width:0.918377"
       d="m 122.44889,116.03605 8.7e-4,-0.45919 0.45918,8.7e-4 0.45919,8.7e-4 0.45919,8.7e-4 0.45919,8.6e-4 0.45919,8.7e-4 0.45918,8.7e-4 0.45919,8.7e-4 0.45919,8.7e-4 0.45919,8.7e-4 0.45919,8.6e-4 0.45919,8.7e-4 0.45918,8.7e-4 0.45919,8.7e-4 0.45919,8.7e-4 0.45919,8.7e-4 0.45919,8.6e-4 0.45918,8.7e-4 0.45919,8.7e-4 0.45919,8.7e-4 0.45919,8.7e-4 0.45919,8.7e-4 0.45919,8.7e-4 0.45918,8.6e-4 0.45919,8.7e-4 0.45919,8.7e-4 0.45919,8.7e-4 0.45918,8.7e-4 0.45919,8.7e-4 0.45919,8.6e-4 0.45919,8.7e-4 0.45919,8.7e-4 0.45918,8.7e-4 0.45919,8.7e-4 0.45919,8.7e-4 0.45919,8.7e-4 0.45919,8.6e-4 0.45918,8.7e-4 0.45919,8.7e-4 0.45919,8.7e-4 0.45919,8.7e-4 0.45918,8.7e-4 0.45919,8.6e-4 0.45919,8.7e-4 0.45919,8.7e-4 0.45919,8.7e-4 0.45918,8.7e-4 0.45919,8.7e-4 0.45919,8.6e-4 0.45919,8.7e-4 0.45919,8.7e-4 0.45918,8.7e-4 0.45919,8.7e-4 0.45919,8.7e-4 0.45919,8.7e-4 0.45918,8.6e-4 0.45919,8.7e-4 0.45919,8.7e-4 0.45919,8.7e-4 0.45919,8.7e-4 0.45918,8.7e-4 0.45919,8.6e-4 0.45919,8.7e-4 0.45919,8.7e-4 0.45919,8.7e-4 -8.7e-4,0.45919 -8.7e-4,0.45919 -8.7e-4,0.45918 -8.7e-4,0.45919 -8.7e-4,0.45919 -8.7e-4,0.45919 -8.6e-4,0.45918 -8.7e-4,0.45919 -8.7e-4,0.45919 -8.7e-4,0.45919 -8.7e-4,0.45919 -8.7e-4,0.45918 -8.6e-4,0.45919 -8.7e-4,0.45919 -8.7e-4,0.45919 -8.7e-4,0.45919 -8.7e-4,0.45918 -8.7e-4,0.45919 -8.6e-4,0.45919 -8.7e-4,0.45919 -8.7e-4,0.45918 -8.7e-4,0.45919 -8.7e-4,0.45919 -8.7e-4,0.45919 -8.7e-4,0.45919 -8.6e-4,0.45918 -8.7e-4,0.45919 -8.7e-4,0.45919 -8.7e-4,0.45919 -8.7e-4,0.45919 -8.7e-4,0.45918 -8.6e-4,0.45919 -8.7e-4,0.45919 -8.7e-4,0.45919 -8.7e-4,0.45918 -8.7e-4,0.45919 -8.7e-4,0.45919 -8.7e-4,0.45919 -8.6e-4,0.45919 -8.7e-4,0.45918 -8.7e-4,0.45919 -8.7e-4,0.45919 -8.7e-4,0.45919 -8.7e-4,0.45919 -8.6e-4,0.45918 -8.7e-4,0.45919 -8.7e-4,0.45919 -8.7e-4,0.45919 -8.7e-4,0.45918 -8.7e-4,0.45919 -8.6e-4,0.45919 -8.7e-4,0.45919 -8.7e-4,0.45919 -8.7e-4,0.45918 -8.7e-4,0.45919 -8.7e-4,0.45919 -8.7e-4,0.45919 -8.6e-4,0.45919 -8.7e-4,0.45918 -8.7e-4,0.45919 -8.7e-4,0.45919 -8.7e-4,0.45919 -8.7e-4,0.45918 -8.6e-4,0.45919 -8.7e-4,0.45919 -8.7e-4,0.45919 -8.7e-4,0.45919 -8.7e-4,0.45918 -8.7e-4,0.45919 -8.7e-4,0.45919 -8.6e-4,0.45919 -8.7e-4,0.45919 -8.7e-4,0.45918 -8.7e-4,0.45919 -8.7e-4,0.45919 -8.7e-4,0.45919 -8.6e-4,0.45918 -8.7e-4,0.45919 -8.7e-4,0.45919 -8.7e-4,0.45919 -8.7e-4,0.45919 -8.7e-4,0.45918 -8.6e-4,0.45919 -8.7e-4,0.45919 -8.7e-4,0.45919 -8.7e-4,0.45918 -8.7e-4,0.45919 -8.7e-4,0.45919 -8.7e-4,0.45919 -8.6e-4,0.45919 -8.7e-4,0.45918 -8.7e-4,0.45919 -8.7e-4,0.45919 -8.7e-4,0.45919 -8.7e-4,0.45919 -8.6e-4,0.45918 -8.7e-4,0.45919 -8.7e-4,0.45919 -8.7e-4,0.45919 -8.7e-4,0.45918 -8.7e-4,0.45919 -8.6e-4,0.45919 -8.7e-4,0.45919 -8.7e-4,0.45919 -8.7e-4,0.45918 -8.7e-4,0.45919 -8.7e-4,0.45919 -8.7e-4,0.45919 -8.6e-4,0.45919 -8.7e-4,0.45918 -8.7e-4,0.45919 -8.7e-4,0.45919 -8.7e-4,0.45919 -8.7e-4,0.45918 -8.6e-4,0.45919 -8.7e-4,0.45919 -8.7e-4,0.45919 -8.7e-4,0.45919 -8.7e-4,0.45918 -8.7e-4,0.45919 -8.7e-4,0.45919 -8.6e-4,0.45919 -8.7e-4,0.45919 -8.7e-4,0.45918 -8.7e-4,0.45919 -8.7e-4,0.45919 -8.7e-4,0.45919 -8.6e-4,0.45918 -0.45919,-8.6e-4 -0.45919,-8.7e-4 -0.45919,-8.7e-4 -0.45919,-8.7e-4 -0.45918,-8.7e-4 -0.45919,-8.7e-4 -0.45919,-8.6e-4 -0.45919,-8.7e-4 -0.45918,-8.7e-4 -0.45919,-8.7e-4 -0.45919,-8.7e-4 -0.45919,-8.7e-4 -0.45919,-8.7e-4 -0.45918,-8.6e-4 -0.45919,-8.7e-4 -0.45919,-8.7e-4 -0.45919,-8.7e-4 -0.45919,-8.7e-4 -0.45918,-8.7e-4 -0.45919,-8.6e-4 -0.45919,-8.7e-4 -0.45919,-8.7e-4 -0.45918,-8.7e-4 -0.45919,-8.7e-4 -0.45919,-8.7e-4 -0.45919,-8.6e-4 -0.45919,-8.7e-4 -0.45918,-8.7e-4 -0.45919,-8.7e-4 -0.45919,-8.7e-4 -0.45919,-8.7e-4 -0.45919,-8.7e-4 -0.45918,-8.6e-4 -0.45919,-8.7e-4 -0.45919,-8.7e-4 -0.45919,-8.7e-4 -0.45918,-8.7e-4 -0.45919,-8.7e-4 -0.45919,-8.6e-4 -0.45919,-8.7e-4 -0.45919,-8.7e-4 -0.45918,-8.7e-4 -0.45919,-8.7e-4 -0.45919,-8.7e-4 -0.45919,-8.6e-4 -0.45919,-8.7e-4 -0.45919,-8.7e-4 -0.45918,-8.7e-4 -0.45919,-8.7e-4 -0.45919,-8.7e-4 -0.45919,-8.7e-4 -0.45919,-8.6e-4 -0.45918,-8.7e-4 -0.45919,-8.7e-4 -0.45919,-8.7e-4 -0.45919,-8.7e-4 -0.45919,-8.7e-4 -0.45919,-8.6e-4 -0.45918,-8.7e-4 -0.45919,-8.7e-4 -0.45919,-8.7e-4 -0.45919,-8.7e-4 -0.45919,-8.7e-4 -0.45918,-8.7e-4 8.7e-4,-0.45918 8.6e-4,-0.45919 8.7e-4,-0.45919 8.7e-4,-0.45919 8.7e-4,-0.45918 8.7e-4,-0.45919 8.7e-4,-0.45919 8.6e-4,-0.45919 8.7e-4,-0.45919 8.7e-4,-0.45918 8.7e-4,-0.45919 8.7e-4,-0.45919 8.7e-4,-0.45919 8.6e-4,-0.45919 8.7e-4,-0.45918 8.7e-4,-0.45919 8.7e-4,-0.45919 8.7e-4,-0.45919 8.7e-4,-0.45918 8.7e-4,-0.45919 8.6e-4,-0.45919 8.7e-4,-0.45919 8.7e-4,-0.45919 8.7e-4,-0.45918 8.7e-4,-0.45919 8.7e-4,-0.45919 8.6e-4,-0.45919 8.7e-4,-0.45919 8.7e-4,-0.45918 8.7e-4,-0.45919 8.7e-4,-0.45919 8.7e-4,-0.45919 8.7e-4,-0.45918 8.6e-4,-0.45919 8.7e-4,-0.45919 8.7e-4,-0.45919 8.7e-4,-0.45919 8.7e-4,-0.45918 8.7e-4,-0.45919 8.6e-4,-0.45919 8.7e-4,-0.45919 8.7e-4,-0.45918 8.7e-4,-0.45919 8.7e-4,-0.45919 8.7e-4,-0.45919 8.6e-4,-0.45919 8.7e-4,-0.45918 8.7e-4,-0.45919 8.7e-4,-0.45919 8.7e-4,-0.45919 8.7e-4,-0.45919 8.7e-4,-0.45918 8.6e-4,-0.45919 8.7e-4,-0.45919 8.7e-4,-0.45919 8.7e-4,-0.45918 0.45919,8.6e-4 q 0.45918,8.7e-4 0.91837,0.002 0.45919,8.7e-4 0.91838,0.002 0.45919,8.7e-4 0.91837,0.002 0.45919,8.7e-4 0.91838,0.002 0.45919,8.7e-4 0.91838,0.002 0.45919,8.7e-4 0.91837,0.002 0.45919,8.7e-4 0.91838,0.002 0.45919,8.7e-4 0.91838,0.002 0.45918,8.7e-4 0.91837,0.002 l 0.45919,8.6e-4 -8.7e-4,0.45919 q -8.7e-4,0.45919 -0.002,0.91838 -8.7e-4,0.45919 -0.002,0.91837 -8.7e-4,0.45919 0.11328,0.8038 0.11414,0.34461 0.45832,0.46006 0.34417,0.11544 0.80336,0.11631 l 0.45919,8.7e-4 -8.7e-4,0.45919 q -8.7e-4,0.45919 -0.002,0.91837 -8.7e-4,0.45919 -0.002,0.91838 -8.6e-4,0.45919 -0.002,0.91838 -8.7e-4,0.45918 -0.002,0.91837 -8.7e-4,0.45919 -0.002,0.91838 -8.6e-4,0.45918 -0.002,0.91837 -8.7e-4,0.45919 -0.002,0.91838 -8.7e-4,0.45919 -0.002,0.91837 -8.7e-4,0.45919 -0.11631,0.80337 -0.11545,0.34417 -0.46006,0.45831 -0.34461,0.11415 -0.68922,0.2283 -0.3446,0.11414 -0.46005,0.45832 -0.11545,0.34417 -0.11632,0.80336 -8.7e-4,0.45919 -0.002,0.91837 -8.7e-4,0.45919 -0.002,0.91838 -8.7e-4,0.45919 -0.002,0.91837 -8.7e-4,0.45919 -0.11632,0.80337 -0.11544,0.34417 -0.46005,0.45832 -0.34461,0.11414 -0.68922,0.22829 -0.34461,0.11414 -0.46006,0.45832 -0.11544,0.34417 -0.11631,0.80336 -8.7e-4,0.45919 -0.002,0.91837 -8.7e-4,0.45919 0.11328,0.8038 0.11414,0.34461 0.45831,0.46006 0.34418,0.11544 0.80337,0.11631 0.45918,8.7e-4 0.91838,0.002 0.45918,8.7e-4 0.91837,0.002 0.45919,8.6e-4 0.91838,0.002 0.45918,8.7e-4 0.91837,0.002 0.45919,8.7e-4 0.91838,0.002 0.45919,8.7e-4 0.91837,0.002 0.45919,8.7e-4 0.91838,0.002 0.45919,8.7e-4 0.8038,-0.11328 0.3446,-0.11414 0.46005,-0.45832 0.11545,-0.34417 0.11632,-0.80336 8.7e-4,-0.45919 0.002,-0.91837 8.6e-4,-0.45919 -0.11328,-0.8038 -0.11415,-0.34461 -0.45832,-0.46006 -0.34417,-0.11544 -0.80336,-0.11631 -0.45919,-8.7e-4 -0.91838,-0.002 -0.45919,-8.7e-4 -0.80336,-0.11632 -0.34417,-0.11544 -0.45832,-0.46005 -0.11415,-0.34461 0.001,-0.68878 0.11545,-0.34418 0.46006,-0.45832 0.34461,-0.11415 0.68922,-0.22829 0.3446,-0.11415 0.46005,-0.45832 0.11545,-0.34418 0.11632,-0.80337 8.7e-4,-0.45918 0.002,-0.91837 8.6e-4,-0.45919 0.11631,-0.80336 0.11545,-0.34418 0.46006,-0.45832 0.34461,-0.11415 0.80379,-0.11328 l 0.45919,8.7e-4 -8.7e-4,0.45919 q -8.6e-4,0.45918 -0.002,0.91837 -8.7e-4,0.45919 -0.002,0.91838 -8.7e-4,0.45919 0.11328,0.80379 0.11414,0.34461 0.45832,0.46006 0.34417,0.11545 0.68834,0.2309 0.34418,0.11544 0.45832,0.46005 0.11415,0.34461 0.11328,0.8038 -8.7e-4,0.45919 -0.002,0.91837 -8.6e-4,0.45919 -0.002,0.91838 -8.7e-4,0.45919 -0.002,0.91838 -8.7e-4,0.45918 0.11328,0.80379 0.11414,0.34461 0.45832,0.46006 0.34417,0.11545 0.80336,0.11631 0.45919,8.7e-4 0.91837,0.002 0.45919,8.7e-4 0.91838,0.002 0.45919,8.7e-4 0.91838,0.002 0.45918,8.6e-4 0.91837,0.002 0.45919,8.7e-4 0.91838,0.002 0.45918,8.7e-4 0.80379,-0.11328 0.34461,-0.11414 0.46006,-0.45832 0.11545,-0.34417 0.11632,-0.80336 8.6e-4,-0.45919 0.002,-0.91837 8.7e-4,-0.45919 -0.11327,-0.8038 -0.11415,-0.34461 -0.45832,-0.46006 -0.34418,-0.11545 -0.80337,-0.11631 -0.45918,-8.7e-4 -0.91837,-0.002 -0.45919,-8.7e-4 -0.80336,-0.11632 -0.34418,-0.11545 -0.45832,-0.46005 -0.11415,-0.34461 -0.11328,-0.8038 8.7e-4,-0.45919 0.002,-0.91838 8.7e-4,-0.45918 0.002,-0.91837 8.7e-4,-0.45919 0.002,-0.91838 8.7e-4,-0.45918 -0.11328,-0.80379 -0.11414,-0.34461 -0.45832,-0.46006 -0.34417,-0.11545 -0.68834,-0.2309 -0.34418,-0.11544 -0.45832,-0.46005 -0.11415,-0.34461 -0.11328,-0.8038 8.7e-4,-0.45919 0.002,-0.91837 8.7e-4,-0.45919 0.002,-0.91838 8.7e-4,-0.45919 0.002,-0.91837 8.7e-4,-0.45919 0.002,-0.91838 8.7e-4,-0.45919 0.002,-0.91838 8.7e-4,-0.45918 0.002,-0.91837 8.7e-4,-0.45919 0.002,-0.91838 8.7e-4,-0.45919 0.002,-0.91837 8.6e-4,-0.45919 0.002,-0.91838 8.7e-4,-0.45919 0.002,-0.91837 l 8.7e-4,-0.45919 0.45919,8.7e-4 q 0.45918,8.6e-4 0.91837,0.002 0.45919,8.7e-4 0.91838,0.002 0.45918,8.7e-4 0.80379,-0.11328 0.34461,-0.11414 0.46006,-0.45832 0.11545,-0.34417 0.11632,-0.80336 8.6e-4,-0.45919 0.002,-0.91837 8.7e-4,-0.45919 0.002,-0.91838 8.7e-4,-0.45919 0.002,-0.91838 8.6e-4,-0.45918 -0.11328,-0.80379 -0.11415,-0.34461 -0.45832,-0.46006 -0.34417,-0.11545 -0.68835,-0.23089 -0.34417,-0.11545 -0.45832,-0.46006 -0.11414,-0.34461 -0.11327,-0.8038 8.6e-4,-0.45918 0.002,-0.91837 8.7e-4,-0.45919 0.002,-0.91838 8.7e-4,-0.45919 0.002,-0.91837 8.6e-4,-0.45919 0.002,-0.91838 8.7e-4,-0.45919 0.002,-0.91837 8.7e-4,-0.45919 -0.11328,-0.8038 -0.11414,-0.34461 -0.45832,-0.46006 -0.34417,-0.11545 -0.80336,-0.11631 l -0.45919,-8.7e-4 8.7e-4,-0.45919 q 8.7e-4,-0.45919 0.002,-0.91838 8.7e-4,-0.45918 0.002,-0.91837 8.6e-4,-0.45919 0.002,-0.91838 8.7e-4,-0.45918 0.002,-0.91837 8.7e-4,-0.45919 -0.11328,-0.8038 -0.11414,-0.34461 -0.45832,-0.46005 -0.34417,-0.11545 -0.68834,-0.2309 -0.34418,-0.11545 -0.45832,-0.46006 -0.11415,-0.34461 -0.2283,-0.68921 -0.11414,-0.34461 -0.45831,-0.46006 -0.34418,-0.11545 -0.80337,-0.11632 -0.45918,-8.7e-4 -0.91837,-0.002 -0.45919,-8.7e-4 -0.91838,-0.002 -0.45919,-8.7e-4 -0.91837,-0.002 -0.45919,-8.7e-4 -0.91838,-0.002 -0.45919,-8.7e-4 -0.91837,-0.002 -0.45919,-8.7e-4 -0.8038,0.11328 -0.34461,0.11414 -0.46006,0.45832 -0.11545,0.34417 -0.11631,0.80336 -8.7e-4,0.45919 -0.002,0.91837 -8.7e-4,0.45919 -0.002,0.91838 -8.7e-4,0.45919 -0.002,0.91837 -8.7e-4,0.45919 -0.002,0.91838 -8.7e-4,0.45919 -0.002,0.91838 -8.7e-4,0.45918 -0.002,0.91837 -8.6e-4,0.45919 -0.002,0.91838 -8.7e-4,0.45918 -0.002,0.91837 -8.7e-4,0.45919 -0.002,0.91838 -8.6e-4,0.45919 -0.11631,0.80336 -0.11545,0.34417 -0.46006,0.45832 -0.34461,0.11415 -0.80379,0.11328 l -0.4592,-8.7e-4 8.7e-4,-0.45919 q 8.7e-4,-0.45919 0.002,-0.91838 8.7e-4,-0.45918 0.002,-0.91837 8.7e-4,-0.45919 0.002,-0.91838 8.7e-4,-0.45918 0.002,-0.91837 8.7e-4,-0.45919 0.002,-0.91838 8.7e-4,-0.45919 0.002,-0.91837 8.7e-4,-0.45919 0.002,-0.91838 8.7e-4,-0.45919 0.002,-0.91838 8.7e-4,-0.45918 0.002,-0.91837 8.7e-4,-0.45919 0.002,-0.91838 8.7e-4,-0.45918 -0.11327,-0.80379 -0.11415,-0.34461 -0.45832,-0.46006 -0.34418,-0.11545 -0.80337,-0.11632 -0.45918,-8.6e-4 -0.91837,-0.002 -0.45919,-8.7e-4 -0.91838,-0.002 -0.45919,-8.7e-4 -0.91837,-0.002 -0.45919,-8.6e-4 -0.91838,-0.002 -0.45919,-8.7e-4 -0.91838,-0.002 -0.45919,-8.7e-4 -0.80379,0.11328 -0.34461,0.11414 -0.46006,0.45832 -0.11545,0.34417 -0.11632,0.80336 -8.6e-4,0.45919 -0.002,0.91837 -8.6e-4,0.45919 -0.002,0.91838 -8.6e-4,0.45919 -0.002,0.91838 -8.7e-4,0.45918 -0.11631,0.80336 -0.11545,0.34417 -0.46006,0.45832 -0.34461,0.11414 -0.8038,0.11327 l -0.45918,-8.6e-4 8.6e-4,-0.45919 8.7e-4,-0.45919 8.7e-4,-0.45919 8.7e-4,-0.45919 8.7e-4,-0.45918 8.7e-4,-0.45919 8.7e-4,-0.45919 8.6e-4,-0.45919 8.7e-4,-0.45919 8.7e-4,-0.45918 8.7e-4,-0.45919 8.7e-4,-0.45919 8.7e-4,-0.45919 8.6e-4,-0.45918 8.7e-4,-0.45919 8.7e-4,-0.45919 8.7e-4,-0.45919 8.7e-4,-0.45919 8.7e-4,-0.45918 8.7e-4,-0.45919 8.6e-4,-0.45919 8.7e-4,-0.45919 8.7e-4,-0.45919 8.7e-4,-0.45918 8.7e-4,-0.45919 8.7e-4,-0.45919 8.6e-4,-0.45919 8.7e-4,-0.45918 8.7e-4,-0.45919 8.7e-4,-0.45919 8.7e-4,-0.45919 8.7e-4,-0.45919 8.6e-4,-0.45918 8.7e-4,-0.45919 8.7e-4,-0.45919 8.7e-4,-0.45919 8.7e-4,-0.45919 8.7e-4,-0.45918 8.7e-4,-0.45919 8.6e-4,-0.45919 8.7e-4,-0.45919 8.7e-4,-0.45918 8.7e-4,-0.45919 m 9.13665,24.92831 -6.5e-4,0.34439 -2.2e-4,0.1148 -2.2e-4,0.11479 4.4e-4,-0.22959 q 4.3e-4,-0.2296 8.6e-4,-0.45919 l 4.4e-4,-0.22959 -6.5e-4,0.34439 m 11.02745,-3.65266 -6.5e-4,0.34439 -2.1e-4,0.11479 -2.2e-4,0.1148 4.3e-4,-0.22959 q 4.4e-4,-0.2296 8.7e-4,-0.45919 l 4.4e-4,-0.22959 -6.6e-4,0.34439 m 2.31266,-8.83503 q 0.45919,8.7e-4 0.8038,-0.11327 0.34461,-0.11415 0.46005,-0.45832 0.11545,-0.34418 0.11632,-0.80337 8.7e-4,-0.45918 0.002,-0.91837 8.7e-4,-0.45919 0.002,-0.91838 8.7e-4,-0.45918 0.002,-0.91837 8.7e-4,-0.45919 0.002,-0.91838 8.7e-4,-0.45919 0.002,-0.91837 8.7e-4,-0.45919 0.002,-0.91838 8.7e-4,-0.45919 0.002,-0.91838 8.7e-4,-0.45918 -0.11328,-0.80379 -0.11414,-0.34461 -0.45832,-0.46006 -0.34417,-0.11545 -0.68835,-0.23089 -0.34417,-0.11545 -0.45832,-0.46006 -0.11414,-0.34461 -0.22829,-0.68922 -0.11414,-0.3446 -0.45832,-0.46005 -0.34417,-0.11545 -0.80336,-0.11632 -0.45919,-8.7e-4 -0.91837,-0.002 -0.45919,-8.6e-4 -0.91838,-0.002 -0.45919,-8.7e-4 -0.91837,-0.002 -0.45919,-8.7e-4 -0.91838,-0.002 -0.45919,-8.6e-4 -0.91838,-0.002 -0.45918,-8.7e-4 -0.80379,0.11327 -0.34461,0.11415 -0.46006,0.45832 -0.11545,0.34418 -0.23089,0.68835 -0.11545,0.34417 -0.46006,0.45832 -0.34461,0.11415 -0.68922,0.22829 -0.3446,0.11415 -0.46005,0.45832 -0.11545,0.34417 -0.11632,0.80336 -8.7e-4,0.45919 -0.002,0.91838 -8.7e-4,0.45919 -0.002,0.91837 -8.7e-4,0.45919 -0.002,0.91838 -8.7e-4,0.45919 0.11328,0.8038 0.11414,0.3446 0.45832,0.46005 0.34417,0.11545 0.68834,0.2309 0.34418,0.11545 0.45832,0.46005 0.11415,0.34461 0.11328,0.8038 -8.7e-4,0.45919 -0.002,0.91838 -8.7e-4,0.45918 0.11328,0.80379 0.11415,0.34461 0.45832,0.46006 0.34417,0.11545 0.80336,0.11632 0.45919,8.6e-4 0.91838,0.002 0.45919,8.7e-4 0.91837,0.002 0.45919,8.7e-4 0.91838,0.002 0.45919,8.6e-4 0.91837,0.002 0.45919,8.7e-4 0.91838,0.002 0.45919,8.7e-4 0.91838,0.002 0.45918,8.6e-4 0.91837,0.002 m -2.33741,21.92188 -2.1e-4,0.1148 -6.5e-4,0.34439 -6.6e-4,0.34439 4.4e-4,-0.22959 q 4.3e-4,-0.2296 8.7e-4,-0.45919 l 4.3e-4,-0.2296 -2.2e-4,0.1148 m -3.69521,11.47275 6.5e-4,-0.34439 2.2e-4,-0.1148 2.2e-4,-0.1148 -4.4e-4,0.2296 q -4.3e-4,0.22959 -8.7e-4,0.45919 l -4.3e-4,0.22959 6.5e-4,-0.34439 m -5.37744,-9.53835 -0.11479,-2.2e-4 -0.34439,-6.5e-4 -0.3444,-6.5e-4 0.2296,4.3e-4 q 0.22959,4.4e-4 0.45919,8.7e-4 l 0.22959,4.3e-4 -0.1148,-2.1e-4 m -1.94525,-3.33281 6.5e-4,-0.34439 2.2e-4,-0.11479 2.1e-4,-0.1148 -4.3e-4,0.22959 q -4.3e-4,0.2296 -8.7e-4,0.45919 l -4.3e-4,0.2296 6.5e-4,-0.3444"
       id="path2"
       inkscape:connector-curvature="0" /><path
       style="fill:#000000;fill-opacity:0;stroke-width:0.899063"
       d="m 106.65518,147.80083 8.5e-4,-0.44953 0.44953,8.5e-4 0.44953,8.5e-4 0.44953,8.5e-4 0.44953,8.5e-4 0.44953,8.5e-4 0.44953,8.5e-4 0.44953,8.5e-4 0.44953,8.5e-4 0.44954,8.5e-4 0.44953,8.5e-4 0.44953,8.5e-4 0.44953,8.5e-4 0.44953,8.5e-4 0.44953,8.5e-4 0.44953,8.5e-4 0.44953,8.5e-4 0.44953,8.5e-4 0.44953,8.5e-4 0.44953,8.5e-4 0.44953,8.5e-4 0.44954,8.5e-4 0.44953,8.5e-4 0.44953,8.5e-4 0.44953,8.5e-4 0.44953,8.5e-4 0.44953,8.5e-4 0.44953,8.5e-4 0.44953,8.5e-4 0.44953,8.6e-4 0.44953,8.5e-4 0.44953,8.5e-4 0.44953,8.5e-4 0.44954,8.5e-4 0.44953,8.5e-4 0.44953,8.5e-4 0.44953,8.5e-4 0.44953,8.5e-4 0.44953,8.5e-4 0.44953,8.5e-4 0.44953,8.5e-4 0.44953,8.5e-4 0.44953,8.5e-4 0.44953,8.5e-4 0.44953,8.5e-4 0.44954,8.5e-4 0.44953,8.5e-4 0.44953,8.5e-4 0.44953,8.5e-4 0.44953,8.5e-4 0.44953,8.5e-4 0.44953,8.5e-4 0.44953,8.5e-4 0.44953,8.5e-4 0.44953,8.5e-4 0.44953,8.5e-4 0.44954,8.5e-4 0.44953,8.5e-4 0.44953,8.5e-4 0.44953,8.5e-4 0.44953,8.5e-4 0.44953,8.5e-4 0.44953,8.5e-4 0.44953,8.5e-4 0.44953,8.5e-4 -8.5e-4,0.44953 -8.5e-4,0.44953 -8.5e-4,0.44953 -8.5e-4,0.44953 -8.5e-4,0.44953 -8.5e-4,0.44953 -8.5e-4,0.44954 -8.5e-4,0.44953 -8.5e-4,0.44953 -8.5e-4,0.44953 -8.5e-4,0.44953 -8.5e-4,0.44953 -8.5e-4,0.44953 -8.5e-4,0.44953 -8.5e-4,0.44953 -8.5e-4,0.44953 -8.5e-4,0.44953 -8.5e-4,0.44953 -8.5e-4,0.44953 -8.5e-4,0.44953 -8.5e-4,0.44953 -8.5e-4,0.44953 -8.5e-4,0.44954 -8.5e-4,0.44953 -8.5e-4,0.44953 -8.5e-4,0.44953 -8.5e-4,0.44953 -8.5e-4,0.44953 -8.5e-4,0.44953 -8.5e-4,0.44953 -8.5e-4,0.44953 -8.5e-4,0.44953 -8.5e-4,0.44953 -8.5e-4,0.44953 -8.5e-4,0.44953 -8.5e-4,0.44953 -8.6e-4,0.44953 -8.5e-4,0.44953 -8.5e-4,0.44953 -8.5e-4,0.44954 -8.5e-4,0.44953 -8.5e-4,0.44953 -8.5e-4,0.44953 -8.5e-4,0.44953 -8.5e-4,0.44953 -8.5e-4,0.44953 -8.5e-4,0.44953 -8.5e-4,0.44953 -8.5e-4,0.44953 -8.5e-4,0.44953 -8.5e-4,0.44953 -8.5e-4,0.44953 -8.5e-4,0.44953 -8.5e-4,0.44953 -8.5e-4,0.44953 -8.5e-4,0.44953 -8.5e-4,0.44954 -8.5e-4,0.44953 -8.5e-4,0.44953 -8.5e-4,0.44953 -8.5e-4,0.44953 -8.5e-4,0.44953 -8.5e-4,0.44953 -8.5e-4,0.44953 -0.44953,-8.5e-4 -0.44953,-8.5e-4 -0.44953,-8.5e-4 -0.44953,-8.5e-4 -0.44953,-8.5e-4 -0.44953,-8.5e-4 -0.44953,-8.5e-4 -0.44953,-8.5e-4 -0.44954,-8.5e-4 -0.44953,-8.5e-4 -0.44953,-8.5e-4 -0.44953,-8.5e-4 -0.44953,-8.5e-4 -0.44953,-8.5e-4 -0.44953,-8.5e-4 -0.44953,-8.5e-4 -0.44953,-8.5e-4 -0.44953,-8.5e-4 -0.44953,-8.5e-4 -0.44954,-8.5e-4 -0.44953,-8.5e-4 -0.44953,-8.5e-4 -0.44953,-8.5e-4 -0.44953,-8.5e-4 -0.44953,-8.5e-4 -0.44953,-8.5e-4 -0.44953,-8.6e-4 -0.44953,-8.5e-4 -0.44953,-8.5e-4 -0.44953,-8.5e-4 -0.44953,-8.5e-4 -0.44954,-8.5e-4 -0.44953,-8.5e-4 -0.44953,-8.5e-4 -0.44953,-8.5e-4 -0.44953,-8.5e-4 -0.44953,-8.5e-4 -0.44953,-8.5e-4 -0.44953,-8.5e-4 -0.44953,-8.5e-4 -0.44953,-8.5e-4 -0.44953,-8.5e-4 -0.44954,-8.5e-4 -0.44953,-8.5e-4 -0.44953,-8.5e-4 -0.44953,-8.5e-4 -0.44953,-8.5e-4 -0.44953,-8.5e-4 -0.44953,-8.5e-4 -0.44953,-8.5e-4 -0.44953,-8.5e-4 -0.44953,-8.5e-4 -0.44953,-8.5e-4 -0.44953,-8.5e-4 -0.44954,-8.5e-4 -0.44953,-8.5e-4 -0.44953,-8.5e-4 -0.44953,-8.5e-4 -0.44953,-8.5e-4 -0.44953,-8.5e-4 -0.44953,-8.5e-4 -0.44953,-8.5e-4 -0.44953,-8.5e-4 -0.44953,-8.5e-4 8.5e-4,-0.44953 8.5e-4,-0.44953 8.5e-4,-0.44953 8.5e-4,-0.44953 8.5e-4,-0.44953 8.5e-4,-0.44954 8.5e-4,-0.44953 8.5e-4,-0.44953 8.5e-4,-0.44953 8.5e-4,-0.44953 8.5e-4,-0.44953 8.5e-4,-0.44953 8.5e-4,-0.44953 8.5e-4,-0.44953 8.5e-4,-0.44953 8.5e-4,-0.44953 8.5e-4,-0.44953 8.5e-4,-0.44953 8.5e-4,-0.44953 8.5e-4,-0.44953 8.5e-4,-0.44953 8.5e-4,-0.44953 8.5e-4,-0.44954 8.5e-4,-0.44953 8.5e-4,-0.44953 8.5e-4,-0.44953 8.5e-4,-0.44953 8.5e-4,-0.44953 8.5e-4,-0.44953 8.5e-4,-0.44953 8.5e-4,-0.44953 8.5e-4,-0.44953 8.5e-4,-0.44953 8.5e-4,-0.44953 8.5e-4,-0.44953 8.5e-4,-0.44953 8.5e-4,-0.44953 8.5e-4,-0.44953 8.5e-4,-0.44953 8.5e-4,-0.44954 8.5e-4,-0.44953 8.5e-4,-0.44953 8.5e-4,-0.44953 8.5e-4,-0.44953 8.5e-4,-0.44953 8.5e-4,-0.44953 8.5e-4,-0.44953 8.5e-4,-0.44953 8.5e-4,-0.44953 8.6e-4,-0.44953 8.5e-4,-0.44953 8.5e-4,-0.44953 8.5e-4,-0.44953 8.5e-4,-0.44953 8.5e-4,-0.44953 8.5e-4,-0.44954 8.5e-4,-0.44953 8.5e-4,-0.44953 8.5e-4,-0.44953 8.5e-4,-0.44953 8.5e-4,-0.44953 8.5e-4,-0.44953 8.5e-4,-0.44953 m 15.68342,26.55206 q 0.44953,8.5e-4 0.45038,-0.44868 8.5e-4,-0.44953 0.002,-0.89906 8.5e-4,-0.44953 0.002,-0.89906 8.5e-4,-0.44953 0.002,-0.89906 8.5e-4,-0.44953 0.002,-0.89906 8.5e-4,-0.44953 0.002,-0.89906 8.5e-4,-0.44953 0.45038,-0.44868 0.44953,8.5e-4 0.89906,0.002 0.44953,8.5e-4 0.45038,-0.44868 8.5e-4,-0.44954 0.11387,-0.78647 0.11302,-0.33694 0.45038,-0.44868 0.33736,-0.11175 0.78689,-0.1109 0.44953,8.5e-4 0.89907,0.002 0.44953,8.5e-4 0.89906,0.002 0.44953,8.5e-4 0.45038,-0.44868 8.5e-4,-0.44953 0.002,-0.89906 8.5e-4,-0.44953 0.45038,-0.44868 0.44953,8.5e-4 0.89906,0.002 0.44953,8.5e-4 0.45038,-0.44868 8.5e-4,-0.44953 0.002,-0.89906 8.5e-4,-0.44953 0.002,-0.89906 8.5e-4,-0.44953 0.002,-0.89906 8.5e-4,-0.44953 0.002,-0.89906 8.5e-4,-0.44953 0.002,-0.89906 8.5e-4,-0.44953 0.002,-0.89906 8.5e-4,-0.44954 0.002,-0.89907 8.5e-4,-0.44953 0.002,-0.89906 8.5e-4,-0.44953 0.002,-0.89906 8.5e-4,-0.44953 0.002,-0.89906 8.5e-4,-0.44953 0.002,-0.89906 8.5e-4,-0.44953 0.002,-0.89906 8.5e-4,-0.44953 0.002,-0.89906 8.5e-4,-0.44953 0.002,-0.89906 8.5e-4,-0.44953 0.002,-0.89907 8.5e-4,-0.44953 -0.44868,-0.45038 -0.44953,-8.5e-4 -0.89906,-0.002 -0.44953,-8.5e-4 -0.89906,-0.002 -0.44953,-8.5e-4 -0.89906,-0.002 -0.44954,-8.5e-4 -0.89907,-0.002 -0.44953,-8.5e-4 -0.78646,-0.11387 -0.33694,-0.11302 -0.44868,-0.45038 -0.11175,-0.33736 -0.1109,-0.78689 8.5e-4,-0.44953 -0.44868,-0.45038 -0.44953,-8.5e-4 -0.89906,-0.002 -0.44953,-8.5e-4 -0.89906,-0.002 -0.44953,-8.5e-4 -0.89906,-0.002 -0.44954,-8.5e-4 -0.89907,-0.002 -0.44953,-8.5e-4 -0.89906,-0.002 -0.44953,-8.5e-4 -0.89906,-0.002 -0.44953,-8.5e-4 -0.89906,-0.002 -0.44953,-8.5e-4 -0.45038,0.44868 -8.5e-4,0.44953 -0.002,0.89906 -8.5e-4,0.44953 -0.45038,0.44868 -0.44953,-8.5e-4 -0.89906,-0.002 -0.44954,-8.5e-4 -0.45039,0.44868 -8.5e-4,0.44953 -0.002,0.89906 -8.5e-4,0.44953 -0.002,0.89906 -8.5e-4,0.44953 -0.002,0.89906 -8.5e-4,0.44953 -0.45038,0.44868 -0.44953,-8.5e-4 -0.89906,-0.002 -0.44953,-8.5e-4 -0.45038,0.44868 -8.5e-4,0.44953 -0.002,0.89906 -8.5e-4,0.44953 -0.002,0.89907 -8.5e-4,0.44953 -0.002,0.89906 -8.5e-4,0.44953 -0.002,0.89906 -8.5e-4,0.44953 -0.002,0.89906 -8.5e-4,0.44953 -0.002,0.89906 -8.5e-4,0.44953 -0.002,0.89906 -8.5e-4,0.44953 -0.002,0.89906 -8.5e-4,0.44953 -0.002,0.89906 -8.5e-4,0.44953 -0.002,0.89906 -8.5e-4,0.44954 -0.002,0.89907 -8.5e-4,0.44953 0.44868,0.45038 0.44953,8.5e-4 0.89906,0.002 0.44953,8.5e-4 0.44868,0.45038 -8.5e-4,0.44953 -0.002,0.89906 -8.5e-4,0.44953 -0.002,0.89906 -8.5e-4,0.44953 -0.002,0.89906 -8.5e-4,0.44953 0.44869,0.45038 0.44953,8.5e-4 0.78646,0.11387 0.33694,0.11302 0.44868,0.45038 0.11175,0.33736 0.1109,0.78689 -8.5e-4,0.44954 -0.002,0.89907 -8.5e-4,0.44953 -0.002,0.89906 -8.5e-4,0.44953 0.44868,0.45038 0.44953,8.5e-4 0.89906,0.002 0.44953,8.5e-4 0.44868,0.45038 -8.5e-4,0.44953 -0.002,0.89906 -8.5e-4,0.44953 0.44868,0.45038 0.44953,8.5e-4 0.89906,0.002 0.44953,8.5e-4 0.89906,0.002 0.44954,8.5e-4 0.89907,0.002"
       id="path10"
       inkscape:connector-curvature="0" /><g
       id="g15"
       transform="translate(31.750001,5.2916667)"><path
         style="fill:#000000;fill-opacity:1;stroke-width:0.899063"
         d="m 85.690507,149.61936 q 8.5e-4,-0.44953 0.45038,-0.44868 0.449531,8.5e-4 0.899062,0.002 0.44953,8.5e-4 0.899061,0.002 0.44953,8.5e-4 0.899061,0.002 0.449531,8.5e-4 0.899061,0.002 0.449531,8.5e-4 0.899061,0.002 0.449531,8.5e-4 0.899062,0.002 0.44953,8.5e-4 0.899061,0.002 0.44953,8.5e-4 0.44868,0.45038 -8.5e-4,0.44953 0.110895,0.78689 0.111745,0.33736 0.44868,0.45038 0.336936,0.11302 0.786466,0.11387 0.449531,8.5e-4 0.899062,0.002 0.44953,8.5e-4 0.899061,0.002 0.44953,8.5e-4 0.899061,0.002 0.449531,8.5e-4 0.899061,0.002 0.449531,8.5e-4 0.448681,0.45038 -8.51e-4,0.44954 -0.0017,0.89907 -8.5e-4,0.44953 -0.0017,0.89906 -8.5e-4,0.44953 -0.0017,0.89906 -8.51e-4,0.44953 -0.0017,0.89906 -8.5e-4,0.44953 -0.0017,0.89906 -8.5e-4,0.44953 -0.0017,0.89906 -8.51e-4,0.44953 -0.0017,0.89906 -8.5e-4,0.44953 -0.0017,0.89906 -8.5e-4,0.44953 -0.0017,0.89907 -8.5e-4,0.44953 -0.0017,0.89906 -8.5e-4,0.44953 -0.0017,0.89906 -8.5e-4,0.44953 -0.0017,0.89906 -8.5e-4,0.44953 -0.0017,0.89906 -8.5e-4,0.44953 -0.0017,0.89906 -8.5e-4,0.44953 -0.0017,0.89906 -8.5e-4,0.44953 -0.45038,0.44868 -0.449531,-8.5e-4 -0.899062,-0.002 -0.44953,-8.5e-4 -0.45038,0.44868 -8.51e-4,0.44953 -0.0017,0.89906 -8.5e-4,0.44953 -0.45038,0.44868 -0.449531,-8.5e-4 -0.899062,-0.002 -0.44953,-8.5e-4 -0.899061,-0.002 -0.44953,-8.5e-4 -0.786891,0.1109 -0.33736,0.11174 -0.450381,0.44868 -0.11302,0.33693 -0.11387,0.78647 -8.5e-4,0.44953 -0.450381,0.44868 -0.449531,-8.5e-4 -0.899061,-0.002 -0.449531,-8.5e-4 -0.450381,0.44868 -8.5e-4,0.44953 -0.0017,0.89906 -8.5e-4,0.44953 -0.0017,0.89906 -8.5e-4,0.44953 -0.0017,0.89906 -8.5e-4,0.44953 -0.0017,0.89906 -8.51e-4,0.44953 -0.0017,0.89906 -8.5e-4,0.44953 -0.450381,0.44868 -0.44953,-8.5e-4 -0.899061,-0.002 -0.44953,-8.5e-4 -0.899061,-0.002 -0.449531,-8.5e-4 -0.899061,-0.002 -0.449531,-8.5e-4 -0.448681,-0.45038 8.51e-4,-0.44953 0.0017,-0.89906 8.5e-4,-0.44953 -0.448681,-0.45038 -0.44953,-8.5e-4 -0.899061,-0.002 -0.44953,-8.5e-4 -0.44868,-0.45038 8.5e-4,-0.44953 0.0017,-0.89906 8.5e-4,-0.44953 0.0017,-0.89907 8.51e-4,-0.44953 -0.110894,-0.78689 -0.111745,-0.33736 -0.448681,-0.45038 -0.336935,-0.11302 -0.786466,-0.11387 -0.44953,-8.5e-4 -0.44868,-0.45038 8.5e-4,-0.44953 0.0017,-0.89906 8.5e-4,-0.44953 0.0017,-0.89906 8.51e-4,-0.44953 0.0017,-0.89906 8.5e-4,-0.44953 -0.448681,-0.45038 -0.44953,-8.5e-4 -0.899061,-0.002 -0.44953,-8.5e-4 -0.44868,-0.45038 8.5e-4,-0.44953 0.0017,-0.89907 8.5e-4,-0.44953 0.0017,-0.89906 8.51e-4,-0.44953 0.0017,-0.89906 8.5e-4,-0.44953 0.0017,-0.89906 8.5e-4,-0.44953 0.0017,-0.89906 8.5e-4,-0.44953 0.0017,-0.89906 8.5e-4,-0.44953 0.0017,-0.89906 8.5e-4,-0.44953 0.0017,-0.89906 8.5e-4,-0.44953 0.0017,-0.89906 8.5e-4,-0.44954 0.0017,-0.89907 8.5e-4,-0.44953 0.0017,-0.89906 8.5e-4,-0.44953 0.45038,-0.44868 0.449531,8.5e-4 0.899062,0.002 0.44953,8.5e-4 0.45038,-0.44868 8.51e-4,-0.44953 0.0017,-0.89906 8.5e-4,-0.44953 0.0017,-0.89906 8.5e-4,-0.44953 0.0017,-0.89906 8.51e-4,-0.44953 0.450381,-0.44868 0.449531,8.5e-4 0.899061,0.002 0.449531,8.5e-4 0.450381,-0.44868 8.5e-4,-0.44953 0.0017,-0.89906 m 2.320289,21.02002 q 0.336936,0.11302 0.674296,0.001 0.337361,-0.11174 0.450381,-0.44868 0.11302,-0.33693 0.113871,-0.78647 8.5e-4,-0.44953 0.0017,-0.89906 8.5e-4,-0.44953 0.11387,-0.78646 0.113021,-0.33694 0.450381,-0.44868 0.337361,-0.11175 0.786891,-0.1109 0.449531,8.5e-4 0.899062,0.002 0.44953,8.5e-4 0.786891,-0.11089 0.33736,-0.11175 0.45038,-0.44868 0.113021,-0.33694 0.226041,-0.67387 0.11302,-0.33694 0.450381,-0.44868 0.33736,-0.11175 0.674721,-0.22349 0.33736,-0.11175 0.45038,-0.44868 0.113021,-0.33694 0.226041,-0.67387 0.11302,-0.33694 0.450381,-0.44869 0.33736,-0.11174 0.674721,-0.22349 0.33736,-0.11174 0.450381,-0.44868 0.11302,-0.33693 0.11387,-0.78646 8.5e-4,-0.44953 0.0017,-0.89906 8.51e-4,-0.44953 0.0017,-0.89906 8.5e-4,-0.44953 0.0017,-0.89907 8.5e-4,-0.44953 0.0017,-0.89906 8.51e-4,-0.44953 0.0017,-0.89906 8.5e-4,-0.44953 0.0017,-0.89906 8.5e-4,-0.44953 0.0017,-0.89906 8.51e-4,-0.44953 0.0017,-0.89906 8.5e-4,-0.44953 0.0017,-0.89906 8.5e-4,-0.44953 -0.110895,-0.78689 -0.111745,-0.33736 -0.44868,-0.45038 -0.336935,-0.11302 -0.786466,-0.11387 -0.449531,-8.6e-4 -0.899061,-0.002 -0.449531,-8.5e-4 -0.786466,-0.11387 -0.336936,-0.11302 -0.448681,-0.45038 -0.111745,-0.33736 -0.22349,-0.67472 -0.111745,-0.33736 -0.44868,-0.45038 -0.336936,-0.11302 -0.786466,-0.11387 -0.449531,-8.5e-4 -0.899061,-0.002 -0.449531,-8.5e-4 -0.899062,-0.002 -0.44953,-8.5e-4 -0.899061,-0.002 -0.44953,-8.5e-4 -0.786891,0.1109 -0.33736,0.11174 -0.450381,0.44868 -0.11302,0.33693 -0.22604,0.67387 -0.113021,0.33693 -0.450381,0.44868 -0.33736,0.11174 -0.674721,0.22349 -0.33736,0.11174 -0.450381,0.44868 -0.11302,0.33693 -0.11387,0.78646 -8.5e-4,0.44953 -0.0017,0.89906 -8.5e-4,0.44953 -0.11387,0.78647 -0.11302,0.33694 -0.450381,0.44868 -0.33736,0.11175 -0.674721,0.22349 -0.33736,0.11175 -0.450381,0.44868 -0.11302,0.33694 -0.11387,0.78647 -8.5e-4,0.44953 -0.0017,0.89906 -8.51e-4,0.44953 -0.0017,0.89906 -8.5e-4,0.44953 -0.0017,0.89906 -8.5e-4,0.44953 -0.0017,0.89906 -8.51e-4,0.44953 -0.0017,0.89906 -8.5e-4,0.44953 0.110895,0.78689 0.111745,0.33736 0.44868,0.45039 0.336936,0.11302 0.673871,0.22604 0.336936,0.11302 0.448681,0.45038 0.111745,0.33736 0.110895,0.78689 -8.51e-4,0.44953 -0.0017,0.89906 -8.5e-4,0.44953 -0.0017,0.89906 -8.5e-4,0.44953 -0.0017,0.89906 -8.51e-4,0.44953 0.110894,0.78689 0.111745,0.33736 0.448681,0.45038 0.336935,0.11302 0.673871,0.22604 0.336935,0.11302 0.44868,0.45038 0.111745,0.33736 0.22349,0.67473 0.111745,0.33736 0.44868,0.45038"
         id="path11"
         inkscape:connector-curvature="0" /><path
         style="fill:#ff0000;fill-opacity:1;stroke-width:0.899063"
         d="m 87.597398,151.53348 q 0.113021,-0.33694 0.450381,-0.44868 0.337361,-0.11175 0.786891,-0.1109 l 0.449531,8.5e-4 -8.5e-4,0.44953 q -8.51e-4,0.44953 -0.0017,0.89906 -8.5e-4,0.44953 -0.0017,0.89906 -8.5e-4,0.44953 -0.0017,0.89906 -8.51e-4,0.44954 -0.0017,0.89907 -8.5e-4,0.44953 -0.0017,0.89906 -8.5e-4,0.44953 -0.0017,0.89906 -8.51e-4,0.44953 -0.0017,0.89906 -8.5e-4,0.44953 -0.0017,0.89906 -8.5e-4,0.44953 -0.0017,0.89906 -8.5e-4,0.44953 -0.0017,0.89906 -8.5e-4,0.44953 0.110895,0.78689 0.111745,0.33736 0.44868,0.45038 0.336936,0.11303 0.786466,0.11388 0.449531,8.5e-4 0.899062,0.002 0.44953,8.5e-4 0.899061,0.002 0.44953,8.5e-4 0.899061,0.002 0.449531,8.5e-4 0.786891,-0.1109 0.337361,-0.11174 0.450381,-0.44868 0.11302,-0.33693 0.11387,-0.78646 8.51e-4,-0.44954 0.0017,-0.89907 8.5e-4,-0.44953 0.0017,-0.89906 8.5e-4,-0.44953 0.0017,-0.89906 8.51e-4,-0.44953 0.113871,-0.78646 0.11302,-0.33694 0.450381,-0.44868 0.33736,-0.11175 0.786891,-0.1109 l 0.44953,8.5e-4 -8.5e-4,0.44953 q -8.5e-4,0.44953 -0.0017,0.89906 -8.5e-4,0.44953 -0.0017,0.89906 -8.5e-4,0.44953 -0.0017,0.89906 -8.5e-4,0.44954 -0.0017,0.89907 -8.5e-4,0.44953 -0.0017,0.89906 -8.5e-4,0.44953 -0.0017,0.89906 -8.5e-4,0.44953 -0.11387,0.78646 -0.113021,0.33694 -0.450381,0.44868 -0.337361,0.11175 -0.674721,0.22349 -0.337361,0.11175 -0.450381,0.44869 -0.11302,0.33693 -0.226041,0.67387 -0.11302,0.33693 -0.45038,0.44868 -0.337361,0.11174 -0.674721,0.22349 -0.337361,0.11174 -0.450381,0.44868 -0.11302,0.33693 -0.226041,0.67387 -0.11302,0.33693 -0.45038,0.44868 -0.337361,0.11174 -0.786891,0.11089 -0.449531,-8.5e-4 -0.899062,-0.002 -0.44953,-8.5e-4 -0.786891,0.1109 -0.33736,0.11174 -0.450381,0.44868 -0.11302,0.33693 -0.11387,0.78646 -8.5e-4,0.44953 -0.0017,0.89906 -8.51e-4,0.44954 -0.113871,0.78647 -0.11302,0.33694 -0.450381,0.44868 -0.33736,0.11175 -0.674296,-0.001 -0.336935,-0.11302 -0.44868,-0.45038 -0.111745,-0.33737 -0.22349,-0.67473 -0.111745,-0.33736 -0.44868,-0.45038 -0.336936,-0.11302 -0.673871,-0.22604 -0.336936,-0.11302 -0.448681,-0.45038 -0.111745,-0.33736 -0.110894,-0.78689 8.5e-4,-0.44953 0.0017,-0.89906 8.5e-4,-0.44953 0.0017,-0.89906 8.5e-4,-0.44953 0.0017,-0.89906 8.5e-4,-0.44953 -0.110895,-0.78689 -0.111745,-0.33736 -0.448681,-0.45038 -0.336935,-0.11302 -0.673871,-0.22604 -0.336935,-0.11303 -0.44868,-0.45039 -0.111745,-0.33736 -0.110895,-0.78689 8.5e-4,-0.44953 0.0017,-0.89906 8.5e-4,-0.44953 0.0017,-0.89906 8.5e-4,-0.44953 0.0017,-0.89906 8.5e-4,-0.44953 0.0017,-0.89906 8.5e-4,-0.44953 0.0017,-0.89906 8.5e-4,-0.44953 0.11387,-0.78647 0.113021,-0.33693 0.450381,-0.44868 0.337361,-0.11174 0.674721,-0.22349 0.337361,-0.11174 0.450381,-0.44868 0.11302,-0.33694 0.11387,-0.78647 8.51e-4,-0.44953 0.0017,-0.89906 8.5e-4,-0.44953 0.11387,-0.78646 0.113021,-0.33694 0.450381,-0.44868 0.337361,-0.11175 0.674721,-0.22349 0.33736,-0.11175 0.450381,-0.44868 0.11302,-0.33694 0.22604,-0.67387 m 8.868453,5.18639 6.37e-4,-0.33715 2.13e-4,-0.11238 2.12e-4,-0.11238 -4.25e-4,0.22476 q -4.25e-4,0.22477 -8.5e-4,0.44953 l -4.25e-4,0.22477 6.38e-4,-0.33715 m -7.069268,-5.74491 -0.112382,-2.1e-4 -0.337148,-6.4e-4 -0.337148,-6.3e-4 0.224765,4.2e-4 q 0.224766,4.3e-4 0.449531,8.5e-4 l 0.224765,4.3e-4 -0.112383,-2.2e-4"
         id="path12"
         inkscape:connector-curvature="0" /><path
         style="fill:#ffa900;fill-opacity:1;stroke-width:0.899063"
         d="m 89.283351,151.42428 8.5e-4,-0.44953 0.44953,8.5e-4 q 0.449531,8.5e-4 0.899062,0.002 0.44953,8.5e-4 0.899061,0.002 0.44953,8.5e-4 0.786466,0.11387 0.336935,0.11302 0.44868,0.45038 0.111745,0.33736 0.22349,0.67472 0.111745,0.33736 0.448681,0.45038 0.336935,0.11302 0.786466,0.11387 0.44953,8.5e-4 0.899061,0.002 0.449531,8.5e-4 0.786466,0.11387 0.336935,0.11302 0.44868,0.45038 0.111745,0.33736 0.110895,0.78689 -8.5e-4,0.44953 -0.0017,0.89906 -8.5e-4,0.44953 -0.0017,0.89906 l -8.5e-4,0.44953 -0.44953,-8.5e-4 q -0.449531,-8.5e-4 -0.786891,0.1109 -0.337361,0.11174 -0.450381,0.44868 -0.11302,0.33693 -0.113871,0.78646 -8.5e-4,0.44953 -0.0017,0.89906 -8.5e-4,0.44953 -0.0017,0.89906 -8.5e-4,0.44953 -0.0017,0.89907 -8.5e-4,0.44953 -0.11387,0.78646 -0.11302,0.33694 -0.450381,0.44868 -0.33736,0.11175 -0.786891,0.1109 -0.449531,-8.5e-4 -0.899061,-0.002 -0.449531,-8.5e-4 -0.899061,-0.002 -0.449531,-8.5e-4 -0.899062,-0.002 -0.44953,-8.5e-4 -0.786466,-0.11388 -0.336935,-0.11302 -0.44868,-0.45038 -0.111745,-0.33736 -0.110895,-0.78689 8.5e-4,-0.44953 0.0017,-0.89906 8.51e-4,-0.44953 0.0017,-0.89906 8.5e-4,-0.44953 0.0017,-0.89906 8.5e-4,-0.44953 0.0017,-0.89906 8.5e-4,-0.44953 0.0017,-0.89906 8.5e-4,-0.44953 0.0017,-0.89906 8.5e-4,-0.44953 0.0017,-0.89907 8.5e-4,-0.44953 0.0017,-0.89906 8.5e-4,-0.44953 0.0017,-0.89906 8.5e-4,-0.44953 0.0017,-0.89906 m 2.344094,8.43316 q 0.336936,0.11302 0.674296,0.001 0.337361,-0.11175 0.450381,-0.44868 0.11302,-0.33694 0.0013,-0.6743 -0.111745,-0.33736 -0.44868,-0.45038 -0.336935,-0.11302 -0.674296,-10e-4 -0.33736,0.11174 -0.450381,0.44868 -0.11302,0.33693 -0.0013,0.67429 0.111745,0.33736 0.44868,0.45038 m 0.0102,-5.39436 q 0.336935,0.11302 0.674295,10e-4 0.337361,-0.11174 0.450381,-0.44868 0.113021,-0.33693 0.0013,-0.6743 -0.111745,-0.33736 -0.448681,-0.45038 -0.336935,-0.11302 -0.674296,-0.001 -0.33736,0.11174 -0.450381,0.44868 -0.11302,0.33693 -0.0013,0.6743 0.111745,0.33736 0.448681,0.45038 m 4.828628,2.03202 2.12e-4,-0.11238 6.38e-4,-0.33715 6.38e-4,-0.33715 -4.26e-4,0.22477 q -4.25e-4,0.22477 -8.5e-4,0.44953 l -4.25e-4,0.22477 2.13e-4,-0.11239 m -6.844927,-5.51971 -0.337148,-6.4e-4 -0.112383,-2.1e-4 -0.112382,-2.1e-4 0.224765,4.2e-4 q 0.224765,4.3e-4 0.44953,8.5e-4 l 0.224766,4.3e-4 -0.337148,-6.4e-4"
         id="path13"
         inkscape:connector-curvature="0" /><path
         style="fill:#ff0000;fill-opacity:1;stroke-width:0.899063"
         d="m 91.190242,153.3384 q 0.113021,-0.33694 0.450381,-0.44868 0.337361,-0.11175 0.674296,10e-4 0.336936,0.11302 0.448681,0.45038 0.111745,0.33737 -0.0013,0.6743 -0.11302,0.33694 -0.450381,0.44868 -0.33736,0.11175 -0.674295,-0.001 -0.336936,-0.11302 -0.448681,-0.45038 -0.111745,-0.33737 0.0013,-0.6743"
         id="path14"
         inkscape:connector-curvature="0" /><path
         style="fill:#ff0000;fill-opacity:1;stroke-width:0.899063"
         d="m 91.18004,158.73277 q 0.113021,-0.33694 0.450381,-0.44868 0.337361,-0.11175 0.674296,0.001 0.336935,0.11302 0.44868,0.45038 0.111745,0.33736 -0.0013,0.6743 -0.11302,0.33693 -0.450381,0.44868 -0.33736,0.11174 -0.674296,-0.001 -0.336935,-0.11302 -0.44868,-0.45038 -0.111745,-0.33736 0.0013,-0.67429"
         id="path15"
         inkscape:connector-curvature="0" /></g></g></svg>
