<?xml version="1.0" encoding="UTF-8" standalone="no"?>
<!-- Created with Inkscape (http://www.inkscape.org/) -->

<svg
   width="210mm"
   height="297mm"
   viewBox="0 0 210 297"
   version="1.1"
   id="svg1"
   xml:space="preserve"
   inkscape:version="1.3.2 (091e20e, 2023-11-25, custom)"
   sodipodi:docname="fire.svg"
   xmlns:inkscape="http://www.inkscape.org/namespaces/inkscape"
   xmlns:sodipodi="http://sodipodi.sourceforge.net/DTD/sodipodi-0.dtd"
   xmlns:xlink="http://www.w3.org/1999/xlink"
   xmlns="http://www.w3.org/2000/svg"
   xmlns:svg="http://www.w3.org/2000/svg"><sodipodi:namedview
     id="namedview1"
     pagecolor="#505050"
     bordercolor="#eeeeee"
     borderopacity="1"
     inkscape:showpageshadow="0"
     inkscape:pageopacity="0"
     inkscape:pagecheckerboard="0"
     inkscape:deskcolor="#505050"
     inkscape:document-units="mm"
     inkscape:zoom="0.38351221"
     inkscape:cx="194.25718"
     inkscape:cy="548.87431"
     inkscape:window-width="1920"
     inkscape:window-height="1057"
     inkscape:window-x="-8"
     inkscape:window-y="-8"
     inkscape:window-maximized="1"
     inkscape:current-layer="layer1" /><defs
     id="defs1"><linearGradient
       id="linearGradient1110"><stop
         id="stop1106"
         offset="0"
         style="stop-color:#3a6fdc;stop-opacity:1" /><stop
         id="stop1108"
         offset="1"
         style="stop-color:#422c13;stop-opacity:1" /></linearGradient><linearGradient
       id="linearGradient4019"><stop
         style="stop-color:#001a01;stop-opacity:1;"
         offset="0"
         id="stop4021" /><stop
         style="stop-color:#008003;stop-opacity:0;"
         offset="1"
         id="stop4023" /></linearGradient><linearGradient
       id="linearGradient3998"><stop
         style="stop-color:#00aa00;stop-opacity:1;"
         offset="0"
         id="stop4000" /><stop
         style="stop-color:#95ff95;stop-opacity:1;"
         offset="1"
         id="stop4002" /></linearGradient><linearGradient
       id="linearGradient3719"><stop
         style="stop-color:#ffff00;stop-opacity:1;"
         offset="0"
         id="stop3721" /><stop
         style="stop-color:#ffffff;stop-opacity:1;"
         offset="1"
         id="stop3723" /></linearGradient><linearGradient
       id="linearGradient2931"><stop
         style="stop-color:#81e2ff;stop-opacity:1;"
         offset="0"
         id="stop2933" /><stop
         style="stop-color:#bfffff;stop-opacity:1;"
         offset="1"
         id="stop2935" /></linearGradient><inkscape:perspective
       sodipodi:type="inkscape:persp3d"
       inkscape:vp_x="0 : 64 : 1"
       inkscape:vp_y="0 : 1000 : 0"
       inkscape:vp_z="128 : 64 : 1"
       inkscape:persp3d-origin="64 : 42.666667 : 1"
       id="perspective39" /><inkscape:perspective
       id="perspective2870"
       inkscape:persp3d-origin="124.10069 : 97.094126 : 1"
       inkscape:vp_z="248.20137 : 145.64119 : 1"
       inkscape:vp_y="0 : 1000 : 0"
       inkscape:vp_x="0 : 145.64119 : 1"
       sodipodi:type="inkscape:persp3d" /><inkscape:perspective
       sodipodi:type="inkscape:persp3d"
       inkscape:vp_x="0 : 526.18109 : 1"
       inkscape:vp_y="0 : 1000 : 0"
       inkscape:vp_z="744.09448 : 526.18109 : 1"
       inkscape:persp3d-origin="372.04724 : 350.78739 : 1"
       id="perspective32" /><linearGradient
       id="linearGradient3274"><stop
         style="stop-color: rgb(255, 0, 0); stop-opacity: 1;"
         offset="0"
         id="stop3276" /><stop
         style="stop-color: rgb(255, 98, 98); stop-opacity: 1;"
         offset="1"
         id="stop3278" /></linearGradient><linearGradient
       id="linearGradient3169"><stop
         style="stop-color:#a6ffdc;stop-opacity:1;"
         offset="0"
         id="stop3171" /><stop
         style="stop-color: rgb(159, 150, 150); stop-opacity: 1;"
         offset="1"
         id="stop3173" /></linearGradient><linearGradient
       id="linearGradient3161"><stop
         style="stop-color: rgb(0, 190, 255); stop-opacity: 1;"
         offset="0"
         id="stop3163" /><stop
         style="stop-color: rgb(0, 116, 255); stop-opacity: 1;"
         offset="1"
         id="stop3165" /></linearGradient><linearGradient
       inkscape:collect="always"
       xlink:href="#linearGradient3169"
       id="linearGradient3218"
       gradientUnits="userSpaceOnUse"
       gradientTransform="matrix(1.17318,0,0,1.22714,-28.2282,-58.9006)"
       x1="-133.21428"
       y1="544.86218"
       x2="393.21429"
       y2="602.7193" /><linearGradient
       inkscape:collect="always"
       xlink:href="#linearGradient3169"
       id="linearGradient3220"
       gradientUnits="userSpaceOnUse"
       x1="-133.21428"
       y1="180.93361"
       x2="393.21429"
       y2="537.005" /><linearGradient
       inkscape:collect="always"
       xlink:href="#linearGradient3161"
       id="linearGradient3222"
       gradientUnits="userSpaceOnUse"
       x1="-60.221073"
       y1="215.21931"
       x2="320.22107"
       y2="501.29077" /><inkscape:perspective
       sodipodi:type="inkscape:persp3d"
       inkscape:vp_x="0 : 526.18109 : 1"
       inkscape:vp_y="0 : 1000 : 0"
       inkscape:vp_z="744.09448 : 526.18109 : 1"
       inkscape:persp3d-origin="372.04724 : 350.78739 : 1"
       id="perspective2791" /><linearGradient
       inkscape:collect="always"
       id="linearGradient3819"><stop
         style="stop-color:#ffffff;stop-opacity:1;"
         offset="0"
         id="stop3821" /><stop
         style="stop-color:#ffffff;stop-opacity:0;"
         offset="1"
         id="stop3823" /></linearGradient><linearGradient
       id="linearGradient3805"><stop
         style="stop-color:#ffffff;stop-opacity:1;"
         offset="0"
         id="stop3807" /><stop
         style="stop-color:#000000;stop-opacity:1"
         offset="1"
         id="stop3809" /></linearGradient><linearGradient
       inkscape:collect="always"
       id="linearGradient3787"><stop
         style="stop-color:#e9c6af;stop-opacity:1;"
         offset="0"
         id="stop3789" /><stop
         style="stop-color:#e9c6af;stop-opacity:0;"
         offset="1"
         id="stop3791" /></linearGradient><linearGradient
       inkscape:collect="always"
       id="linearGradient3777"><stop
         style="stop-color:#e9c6af;stop-opacity:1"
         offset="0"
         id="stop3779" /><stop
         style="stop-color:#ffb380;stop-opacity:0;"
         offset="1"
         id="stop3781" /></linearGradient><inkscape:perspective
       sodipodi:type="inkscape:persp3d"
       inkscape:vp_x="0 : 526.18109 : 1"
       inkscape:vp_y="0 : 1000 : 0"
       inkscape:vp_z="744.09448 : 526.18109 : 1"
       inkscape:persp3d-origin="372.04724 : 350.78739 : 1"
       id="perspective2915" /><radialGradient
       inkscape:collect="always"
       xlink:href="#linearGradient3777"
       id="radialGradient3783"
       cx="-813.12628"
       cy="-94.644592"
       fx="-813.12628"
       fy="-94.644592"
       r="115.36326"
       gradientTransform="matrix(0.2121045,-0.4430781,1.0102174,0.4835979,-531.22787,-450.2596)"
       gradientUnits="userSpaceOnUse" /><radialGradient
       inkscape:collect="always"
       xlink:href="#linearGradient3787"
       id="radialGradient3793"
       cx="-411.91803"
       cy="-155.89888"
       fx="-411.91803"
       fy="-155.89888"
       r="100.02526"
       gradientTransform="matrix(0.517926,2.4443536e-8,-3.9212833e-8,0.4489316,-208.63166,-91.522765)"
       gradientUnits="userSpaceOnUse" /><linearGradient
       inkscape:collect="always"
       xlink:href="#linearGradient3819"
       id="linearGradient3825"
       x1="-776.61304"
       y1="16.878105"
       x2="-785.38751"
       y2="16.656706"
       gradientUnits="userSpaceOnUse" /><inkscape:perspective
       id="perspective2494"
       inkscape:persp3d-origin="112.32812 : 84.755096 : 1"
       inkscape:vp_z="224.65625 : 127.13264 : 1"
       inkscape:vp_y="0 : 1000 : 0"
       inkscape:vp_x="0 : 127.13264 : 1"
       sodipodi:type="inkscape:persp3d" /><inkscape:perspective
       id="perspective3478"
       inkscape:persp3d-origin="111.537 : 85.496002 : 1"
       inkscape:vp_z="223.07401 : 128.244 : 1"
       inkscape:vp_y="0 : 1000 : 0"
       inkscape:vp_x="0 : 128.244 : 1"
       sodipodi:type="inkscape:persp3d" /><inkscape:perspective
       id="perspective3746"
       inkscape:persp3d-origin="125.38622 : 131.1631 : 1"
       inkscape:vp_z="250.77245 : 196.74464 : 1"
       inkscape:vp_y="0 : 1000 : 0"
       inkscape:vp_x="0 : 196.74464 : 1"
       sodipodi:type="inkscape:persp3d" /><inkscape:perspective
       id="perspective4565"
       inkscape:persp3d-origin="111.537 : 91.780334 : 1"
       inkscape:vp_z="223.07401 : 137.6705 : 1"
       inkscape:vp_y="0 : 1000 : 0"
       inkscape:vp_x="0 : 137.6705 : 1"
       sodipodi:type="inkscape:persp3d" /><inkscape:perspective
       id="perspective4802"
       inkscape:persp3d-origin="122.03675 : 84.677867 : 1"
       inkscape:vp_z="244.0735 : 127.0168 : 1"
       inkscape:vp_y="0 : 1000 : 0"
       inkscape:vp_x="0 : 127.0168 : 1"
       sodipodi:type="inkscape:persp3d" /><inkscape:perspective
       id="perspective4927"
       inkscape:persp3d-origin="146.66617 : 131.10267 : 1"
       inkscape:vp_z="293.33234 : 196.65401 : 1"
       inkscape:vp_y="0 : 1000 : 0"
       inkscape:vp_x="0 : 196.65401 : 1"
       sodipodi:type="inkscape:persp3d" /><inkscape:perspective
       id="perspective5128"
       inkscape:persp3d-origin="112.32812 : 84.755096 : 1"
       inkscape:vp_z="224.65625 : 127.13264 : 1"
       inkscape:vp_y="0 : 1000 : 0"
       inkscape:vp_x="0 : 127.13264 : 1"
       sodipodi:type="inkscape:persp3d" /><inkscape:perspective
       id="perspective5413"
       inkscape:persp3d-origin="119 : 94.388997 : 1"
       inkscape:vp_z="238 : 141.5835 : 1"
       inkscape:vp_y="0 : 1000 : 0"
       inkscape:vp_x="0 : 141.5835 : 1"
       sodipodi:type="inkscape:persp3d" /><inkscape:perspective
       id="perspective3889"
       inkscape:persp3d-origin="111.537 : 85.496002 : 1"
       inkscape:vp_z="223.07401 : 128.244 : 1"
       inkscape:vp_y="0 : 1000 : 0"
       inkscape:vp_x="0 : 128.244 : 1"
       sodipodi:type="inkscape:persp3d" /><inkscape:perspective
       id="perspective7812"
       inkscape:persp3d-origin="0.5 : 0.33333333 : 1"
       inkscape:vp_z="1 : 0.5 : 1"
       inkscape:vp_y="0 : 1000 : 0"
       inkscape:vp_x="0 : 0.5 : 1"
       sodipodi:type="inkscape:persp3d" /><inkscape:perspective
       id="perspective4157"
       inkscape:persp3d-origin="0.5 : 0.33333333 : 1"
       inkscape:vp_z="1 : 0.5 : 1"
       inkscape:vp_y="0 : 1000 : 0"
       inkscape:vp_x="0 : 0.5 : 1"
       sodipodi:type="inkscape:persp3d" /><inkscape:perspective
       id="perspective4081"
       inkscape:persp3d-origin="0.5 : 0.33333333 : 1"
       inkscape:vp_z="1 : 0.5 : 1"
       inkscape:vp_y="0 : 1000 : 0"
       inkscape:vp_x="0 : 0.5 : 1"
       sodipodi:type="inkscape:persp3d" /><inkscape:perspective
       id="perspective2909"
       inkscape:persp3d-origin="0.5 : 0.33333333 : 1"
       inkscape:vp_z="1 : 0.5 : 1"
       inkscape:vp_y="0 : 1000 : 0"
       inkscape:vp_x="0 : 0.5 : 1"
       sodipodi:type="inkscape:persp3d" /><linearGradient
       inkscape:collect="always"
       xlink:href="#linearGradient2931"
       id="linearGradient2937"
       x1="58.765118"
       y1="100.23344"
       x2="68.881554"
       y2="29.654148"
       gradientUnits="userSpaceOnUse" /><linearGradient
       inkscape:collect="always"
       xlink:href="#linearGradient3719"
       id="linearGradient3717"
       x1="297.41113"
       y1="270.41547"
       x2="132.12135"
       y2="183.08011"
       gradientUnits="userSpaceOnUse" /><linearGradient
       inkscape:collect="always"
       xlink:href="#linearGradient3719"
       id="linearGradient3725"
       x1="263.97836"
       y1="213.56012"
       x2="146.20819"
       y2="271.33719"
       gradientUnits="userSpaceOnUse" /><linearGradient
       inkscape:collect="always"
       xlink:href="#linearGradient3169"
       id="linearGradient3151"
       gradientUnits="userSpaceOnUse"
       x1="-1297.5732"
       y1="161.72171"
       x2="-1297.5732"
       y2="32.530834"
       gradientTransform="translate(210.06986,0)" /><radialGradient
       inkscape:collect="always"
       xlink:href="#linearGradient4019"
       id="radialGradient4025"
       cx="-1333.3022"
       cy="148.4447"
       fx="-1333.3022"
       fy="148.4447"
       r="67.489494"
       gradientTransform="matrix(1,0,0,0.39413681,0,89.937181)"
       gradientUnits="userSpaceOnUse" /></defs><g
     inkscape:label="Layer 1"
     inkscape:groupmode="layer"
     id="layer1"><path
       style="fill:#000000;fill-opacity:1;stroke-width:7.1925"
       d="m 69.833116,58.17338 c 4.122632,-7.71656 17.425464,-1.64096 25.180512,-3.54144 10.424212,1.30712 23.121872,-2.55928 32.137612,2.09328 -2.42917,13.65632 12.51736,13.2164 21.77885,12.40632 6.67039,1.82768 22.15471,-4.77 21.56615,6.03952 -0.0664,35.16384 -0.13296,70.3276 -0.19944,105.49144 -1.52322,7.516 -17.31687,-0.6472 -14.40492,10.5172 2.13172,8.92864 -8.1872,7.88352 -14.39904,7.40416 -8.3233,-1.97008 -16.3348,3.18696 -14.63312,12.3328 -4.45961,3.99192 -16.71968,-0.74 -14.17809,9.42344 -0.16464,11.22896 0.2484,22.5 -0.28848,33.70184 -7.47448,4.00776 -19.119618,1.89648 -27.648258,1.06432 -2.192744,-3.82048 0.42328,-8.77016 -1.77432,-12.59024 -6.096728,-1.0592 -15.756064,0.2848 -13.469264,-8.83592 -0.41304,-6.2076 1.35984,-13.13728 -2.212448,-18.61768 -5.470832,-2.63336 -14.353856,-1.59448 -12.11812,-10.17952 -0.12344,-6.27528 0.30376,-12.58872 -0.18912,-18.83848 -4.44448,-4.00792 -16.722336,0.6696 -14.142336,-9.48184 0.0472,-25.09464 0.09488,-50.18928 0.14232,-75.28392 1.523216,-7.516 17.316864,0.6472 14.40492,-10.5172 0.14824,-6.59424 -0.25592,-13.2288 0.26224,-19.79608 4.459608,-3.99192 16.71968,0.74 14.178088,-9.42344 0.0021,-1.11968 0.0042,-2.23928 0.0064,-3.35896 m 18.562312,168.16016 c 8.513224,3.03448 10.831112,-6.8656 9.914728,-13.22752 -0.19816,-5.70472 -0.28456,-14.30832 7.444488,-14.38808 7.04018,-1.14272 19.26955,2.8236 21.22454,-6.95056 0.34024,-8.14152 10.7403,-6.19624 13.65021,-12.08616 1.16239,-4.98096 3.55134,-9.99264 9.45971,-10.32144 7.31097,-1.65736 5.64436,-10.34784 5.87432,-16.0784 0.002,-20.24112 0.15048,-40.48432 0.0584,-60.72408 0.0979,-13.37888 -16.13039,-7.21896 -24.19965,-9.99408 -6.11913,-2.10728 -3.02782,-12.27256 -10.37085,-12.99984 -10.82501,-0.652 -22.019696,-1.3104 -32.760288,0.324 -6.00048,3.83336 -4.703056,14.72696 -14.412184,14.35776 -6.23132,2.90176 -4.11116,10.94208 -4.526696,16.58976 3.201656,11.5968 -11.572712,9.19224 -13.911728,17.14648 -1.06056,11.47552 -0.31152,23.08264 -0.5712,34.616 0.34016,5.60176 -1.679152,13.86072 4.919128,16.28472 5.732088,0.96112 10.630264,5.05264 9.413264,11.55408 0.202,8.81832 -0.53784,17.70288 0.45568,26.46704 0.812992,7.74752 12.458504,4.08136 13.407512,11.76936 1.062048,2.8336 1.448832,6.72248 4.930384,7.65144"
       id="path11"
       inkscape:connector-curvature="0" /><path
       style="fill:#ff0000;fill-opacity:1;stroke-width:7.1925"
       d="m 85.088336,73.48634 c 2.182589,-5.310842 8.76685,-4.355788 13.494423,-4.46984 -0.01164,25.754045 -0.171764,51.51084 -0.0899,77.26315 -0.821675,7.69838 7.280991,9.92256 13.412621,9.0727 7.91399,-0.24977 15.91384,0.61257 23.7699,-0.45396 6.3307,-0.98333 5.96287,-8.33788 5.9252,-13.26751 0.23014,-7.81857 -0.4702,-15.7097 0.55011,-23.46956 1.00715,-6.32686 8.36038,-5.93147 13.2898,-5.87483 1.37718,0.89649 0.20676,4.33083 0.58886,6.21858 -0.10607,14.36682 0.10691,28.74467 -0.20793,43.10429 0.63441,10.32968 -14.9982,6.28282 -14.73979,16.73126 -1.817,7.87208 -14.72567,4.59268 -14.41219,14.35776 -1.78632,7.4951 -10.90443,5.53519 -16.64369,5.81054 -6.75358,-1.23993 -12.906574,3.67206 -11.708205,10.7661 -0.302325,5.26748 1.034854,11.1885 -2.27741,15.72936 -6.855326,5.63125 -12.861615,-2.33196 -13.581509,-8.90183 -3.133651,-4.48608 -11.670552,-2.39017 -12.400963,-9.18266 -0.986451,-7.98763 -0.262129,-16.09921 -0.460066,-24.14243 0.102091,-4.76785 0.157929,-11.62564 -5.819949,-12.67484 -8.41505,-0.43122 -9.10907,-9.27433 -8.51124,-15.74978 0.23947,-11.86367 -0.39997,-23.78184 0.41854,-35.61056 0.78373,-8.77668 15.679632,-5.22559 14.007168,-15.66503 C 70.231354,97.249179 68.467543,90.705001 72.029007,85.60614 78.262131,82.660074 84.38728,81.999281 85.088346,73.4935 M 156.036,114.98462 c 0.002,-1.3122 0.0124,-6.56049 0.005,-2.6972 -0.002,1.20287 -0.0137,7.26758 -0.007,3.89659 7.6e-4,-0.3998 0.001,-0.79959 0.002,-1.19939 z M 99.481823,69.02534 c -2.097808,-0.004 -4.195615,-0.0079 -6.293424,-0.0118 2.397497,0.0045 4.794992,0.0091 7.192491,0.0136 -0.29969,-6e-4 -0.599379,-0.0012 -0.899067,-0.0018 z"
       id="path12"
       inkscape:connector-curvature="0" /><path
       style="fill:#ffa900;fill-opacity:1;stroke-width:7.1925"
       d="m 98.575868,72.61274 c 0.156044,-1.114367 -0.293925,-2.837042 0.216343,-3.595844 6.779879,0.0761 13.569749,-0.119382 20.342189,0.169695 3.46038,0.05765 7.13058,1.878095 7.70598,5.5762 1.10304,2.893306 1.46461,6.817677 4.98205,7.807309 6.81703,2.237139 14.38536,-0.63796 21.01109,2.40217 3.64275,2.560328 3.16442,7.620914 3.23711,11.58156 -0.01,5.24452 -0.0196,10.48903 -0.0299,15.73355 -4.10282,0.0795 -8.75248,-0.52516 -12.14157,2.22452 -3.0936,3.91651 -2.05562,9.27945 -2.27408,13.93116 -0.13407,6.5155 0.23594,13.05604 -0.26177,19.5542 0.1163,5.04342 -4.74998,7.6687 -9.26085,7.36816 -8.48613,-0.0224 -16.98551,0.13399 -25.46503,-0.15028 -5.06516,0.29974 -8.521348,-4.10378 -8.14492,-8.93576 -0.09222,-19.96802 0.05596,-39.94075 0.05709,-59.910589 0.0087,-4.585443 0.01734,-9.170887 0.02601,-13.756331 m 18.752748,67.46528 c 4.02547,1.63278 9.48153,-0.86131 9.42271,-5.60355 0.79328,-4.55921 -3.64203,-8.40036 -8.04947,-7.31889 -6.53431,0.46061 -7.35833,11.02699 -1.37324,12.92236 M 117.41,96.92278 c 4.02546,1.632764 9.48152,-0.861262 9.4227,-5.603515 0.7933,-4.559216 -3.64202,-8.4004 -8.04947,-7.318925 -6.53433,0.460613 -7.35833,11.027081 -1.37323,12.92244 z m 38.62902,16.25616 c 0.005,-2.09781 0.008,-4.19563 0.012,-6.29344 -0.004,2.39752 -0.009,4.79504 -0.013,7.19256 6.7e-4,-0.29971 0.001,-0.59941 0.002,-0.89912 M 101.2806,69.02126 c -1.498433,-0.0028 -2.996867,-0.0057 -4.4953,-0.0085 2.397497,0.0045 4.79499,0.0091 7.19249,0.0136 -0.89906,-0.0017 -1.79813,-0.0034 -2.69719,-0.0051 z"
       id="path13"
       inkscape:connector-curvature="0" /><path
       style="fill:#ff0000;fill-opacity:1;stroke-width:7.1925"
       d="m 113.831,87.9257 c 0.49575,-1.608479 1.7591,-2.949543 3.35396,-3.501676 2.26563,-0.84808 4.936,-0.695314 7.01716,0.570791 1.51689,0.936563 2.31492,2.673922 2.56377,4.386059 0.27642,1.86907 -0.0568,3.87568 -1.0988,5.469589 -1.08855,1.633928 -3.0843,2.36264 -4.97066,2.505067 -1.78797,0.10361 -3.68371,-0.295298 -5.11734,-1.412618 -1.55434,-1.243815 -2.16101,-3.313496 -2.20259,-5.236604 -0.009,-0.944093 0.15344,-1.886711 0.4545,-2.780608 z"
       id="path14"
       inkscape:connector-curvature="0" /><path
       style="fill:#ff0000;fill-opacity:1;stroke-width:7.1925"
       d="m 113.74938,131.08066 c 0.49576,-1.60848 1.75911,-2.94954 3.35397,-3.50168 2.26563,-0.84807 4.936,-0.69531 7.01715,0.5708 1.51688,0.93655 2.31491,2.6739 2.56377,4.38602 0.27641,1.86907 -0.0568,3.87569 -1.0988,5.46959 -1.08856,1.63391 -3.08429,2.36269 -4.97066,2.50506 -1.78796,0.1036 -3.68372,-0.29523 -5.11734,-1.41258 -1.55431,-1.2438 -2.16101,-3.31345 -2.20259,-5.23654 -0.009,-0.94409 0.15345,-1.8867 0.4545,-2.78059"
       id="path15"
       inkscape:connector-curvature="0" /></g></svg>
