<?xml version="1.0" encoding="UTF-8" standalone="no"?>
<!-- Created with Inkscape (http://www.inkscape.org/) -->

<svg
   width="4.2112899mm"
   height="13.316452mm"
   viewBox="0 0 4.2112899 13.316452"
   version="1.1"
   id="svg1"
   xml:space="preserve"
   inkscape:version="1.3.2 (091e20e, 2023-11-25, custom)"
   sodipodi:docname="character.svg"
   xmlns:inkscape="http://www.inkscape.org/namespaces/inkscape"
   xmlns:sodipodi="http://sodipodi.sourceforge.net/DTD/sodipodi-0.dtd"
   xmlns="http://www.w3.org/2000/svg"
   xmlns:svg="http://www.w3.org/2000/svg"><sodipodi:namedview
     id="namedview1"
     pagecolor="#505050"
     bordercolor="#eeeeee"
     borderopacity="1"
     inkscape:showpageshadow="0"
     inkscape:pageopacity="0"
     inkscape:pagecheckerboard="0"
     inkscape:deskcolor="#505050"
     inkscape:document-units="mm"
     inkscape:zoom="0.76702441"
     inkscape:cx="342.88348"
     inkscape:cy="507.80652"
     inkscape:window-width="1920"
     inkscape:window-height="1057"
     inkscape:window-x="-8"
     inkscape:window-y="-8"
     inkscape:window-maximized="1"
     inkscape:current-layer="layer1" /><defs
     id="defs1" /><g
     inkscape:label="Layer 1"
     inkscape:groupmode="layer"
     id="layer1"
     transform="translate(-168.51511,-137.42596)"><rect
       inkscape:export-ydpi="292.73001"
       inkscape:export-xdpi="292.73001"
       inkscape:export-filename="D:\xampp\htdocs\proyectos\darellanodev.github.io\img\icons\jetpack.png"
       y="16.255312"
       x="-59.534962"
       height="251.93195"
       width="251.93195"
       id="rect1112"
       style="fill:none;fill-opacity:1;stroke:none;stroke-width:4.08648;stroke-opacity:1" /><path
       style="fill:#8d8d8d;fill-opacity:1;stroke-width:0.918377"
       d="m 168.54066,138.11528 8.6e-4,-0.45919 0.45919,8.7e-4 c 0.30613,5.8e-4 1.10308,0.0393 1.33253,0.11631 0.22945,0.077 0.38223,0.23032 0.45832,0.46006 0.0761,0.22974 0.11386,0.49767 0.11328,0.8038 -5.8e-4,0.30612 -0.001,0.61224 -0.002,0.91837 -5.8e-4,0.30613 -0.001,0.61225 -0.002,0.91838 -5.8e-4,0.30612 -10e-4,0.61224 -0.002,0.91837 -5.8e-4,0.30613 -0.001,0.61225 -0.002,0.91838 -5.8e-4,0.30613 -0.001,0.61225 -0.002,0.91837 -5.8e-4,0.30613 0.0372,0.57406 0.11327,0.8038 0.0761,0.22974 0.22887,0.38309 0.45832,0.46006 0.22945,0.077 0.4589,0.15392 0.68835,0.23089 0.22945,0.077 0.38222,0.23032 0.45832,0.46006 0.0761,0.22974 0.11385,0.49767 0.11328,0.80379 -5.8e-4,0.30613 -0.001,0.61225 -0.002,0.91838 -5.8e-4,0.30613 -0.001,0.61225 -0.002,0.91838 -5.8e-4,0.30612 -10e-4,0.61224 -0.002,0.91837 -5.8e-4,0.30613 -0.0393,0.57391 -0.11632,0.80336 -0.077,0.22945 -0.23032,0.38223 -0.46006,0.45832 -0.22974,0.0761 -0.49767,0.11386 -0.80379,0.11328 -0.30613,-5.8e-4 -0.61225,-10e-4 -0.91838,-0.002 -0.30613,-5.8e-4 -1.14142,-0.001 -1.44754,-0.002 l -0.45919,-8.7e-4 8.7e-4,-0.45919 c 5.8e-4,-0.30613 10e-4,-0.61225 0.002,-0.91838 5.8e-4,-0.30612 0.001,-0.61224 0.002,-0.91837 5.8e-4,-0.30613 0.001,-0.61225 0.002,-0.91838 5.8e-4,-0.30613 10e-4,-0.61225 0.002,-0.91837 5.8e-4,-0.30613 0.001,-0.61225 0.002,-0.91838 5.8e-4,-0.30613 0.001,-0.61225 0.002,-0.91837 5.8e-4,-0.30613 10e-4,-0.61225 0.002,-0.91838 5.8e-4,-0.30613 0.001,-0.61225 0.002,-0.91838 5.8e-4,-0.30612 0.001,-0.61224 0.002,-0.91837 5.8e-4,-0.30613 10e-4,-0.61225 0.002,-0.91838 5.8e-4,-0.30612 0.001,-0.61224 0.002,-0.91837 5.8e-4,-0.30613 0.001,-0.61225 0.002,-0.91838 5.8e-4,-0.30613 10e-4,-0.61225 0.002,-0.91837 m -0.0228,12.05368 -6.5e-4,0.34439 -2.2e-4,0.11479 -2.2e-4,0.1148 4.4e-4,-0.22959 c 3e-4,-0.15307 5.9e-4,-0.30613 8.7e-4,-0.45919 l 4.3e-4,-0.22959 -6.5e-4,0.34439 m 0.0239,-12.62767 -2.2e-4,0.1148 -6.5e-4,0.34439 -6.5e-4,0.34439 4.4e-4,-0.22959 8.6e-4,-0.45919 4.4e-4,-0.2296 -2.2e-4,0.1148"
       id="path8"
       inkscape:connector-curvature="0"
       sodipodi:nodetypes="ccsssscccccssssscccssscccscccccccccccccccccsscccccccccc" /></g></svg>
