<?xml version="1.0" encoding="UTF-8" standalone="no"?>
<!-- Created with Inkscape (http://www.inkscape.org/) -->

<svg
   width="5.5394711mm"
   height="16.761494mm"
   viewBox="0 0 5.5394711 16.761494"
   version="1.1"
   id="svg1"
   xml:space="preserve"
   inkscape:version="1.3.2 (091e20e, 2023-11-25, custom)"
   sodipodi:docname="character.svg"
   xmlns:inkscape="http://www.inkscape.org/namespaces/inkscape"
   xmlns:sodipodi="http://sodipodi.sourceforge.net/DTD/sodipodi-0.dtd"
   xmlns="http://www.w3.org/2000/svg"
   xmlns:svg="http://www.w3.org/2000/svg"><sodipodi:namedview
     id="namedview1"
     pagecolor="#505050"
     bordercolor="#eeeeee"
     borderopacity="1"
     inkscape:showpageshadow="0"
     inkscape:pageopacity="0"
     inkscape:pagecheckerboard="0"
     inkscape:deskcolor="#505050"
     inkscape:document-units="mm"
     inkscape:zoom="0.76702441"
     inkscape:cx="342.88348"
     inkscape:cy="507.80652"
     inkscape:window-width="1920"
     inkscape:window-height="1057"
     inkscape:window-x="-8"
     inkscape:window-y="-8"
     inkscape:window-maximized="1"
     inkscape:current-layer="layer1" /><defs
     id="defs1" /><g
     inkscape:label="Layer 1"
     inkscape:groupmode="layer"
     id="layer1"
     transform="translate(-142.14684,-135.57264)"><rect
       inkscape:export-ydpi="292.73001"
       inkscape:export-xdpi="292.73001"
       inkscape:export-filename="D:\xampp\htdocs\proyectos\darellanodev.github.io\img\icons\jetpack.png"
       y="16.255312"
       x="-59.534962"
       height="251.93195"
       width="251.93195"
       id="rect1112"
       style="fill:none;fill-opacity:1;stroke:none;stroke-width:4.08648;stroke-opacity:1" /><path
       style="fill:#000000;fill-opacity:0;stroke-width:0.918377"
       d="m 122.44889,116.03605 8.7e-4,-0.45919 0.45918,8.7e-4 0.45919,8.7e-4 0.45919,8.7e-4 0.45919,8.6e-4 0.45919,8.7e-4 0.45918,8.7e-4 0.45919,8.7e-4 0.45919,8.7e-4 0.45919,8.7e-4 0.45919,8.6e-4 0.45919,8.7e-4 0.45918,8.7e-4 0.45919,8.7e-4 0.45919,8.7e-4 0.45919,8.7e-4 0.45919,8.6e-4 0.45918,8.7e-4 0.45919,8.7e-4 0.45919,8.7e-4 0.45919,8.7e-4 0.45919,8.7e-4 0.45919,8.7e-4 0.45918,8.6e-4 0.45919,8.7e-4 0.45919,8.7e-4 0.45919,8.7e-4 0.45918,8.7e-4 0.45919,8.7e-4 0.45919,8.6e-4 0.45919,8.7e-4 0.45919,8.7e-4 0.45918,8.7e-4 0.45919,8.7e-4 0.45919,8.7e-4 0.45919,8.7e-4 0.45919,8.6e-4 0.45918,8.7e-4 0.45919,8.7e-4 0.45919,8.7e-4 0.45919,8.7e-4 0.45918,8.7e-4 0.45919,8.6e-4 0.45919,8.7e-4 0.45919,8.7e-4 0.45919,8.7e-4 0.45918,8.7e-4 0.45919,8.7e-4 0.45919,8.6e-4 0.45919,8.7e-4 0.45919,8.7e-4 0.45918,8.7e-4 0.45919,8.7e-4 0.45919,8.7e-4 0.45919,8.7e-4 0.45918,8.6e-4 0.45919,8.7e-4 0.45919,8.7e-4 0.45919,8.7e-4 0.45919,8.7e-4 0.45918,8.7e-4 0.45919,8.6e-4 0.45919,8.7e-4 0.45919,8.7e-4 0.45919,8.7e-4 -8.7e-4,0.45919 -8.7e-4,0.45919 -8.7e-4,0.45918 -8.7e-4,0.45919 -8.7e-4,0.45919 -8.7e-4,0.45919 -8.6e-4,0.45918 -8.7e-4,0.45919 -8.7e-4,0.45919 -8.7e-4,0.45919 -8.7e-4,0.45919 -8.7e-4,0.45918 -8.6e-4,0.45919 -8.7e-4,0.45919 -8.7e-4,0.45919 -8.7e-4,0.45919 -8.7e-4,0.45918 -8.7e-4,0.45919 -8.6e-4,0.45919 -8.7e-4,0.45919 -8.7e-4,0.45918 -8.7e-4,0.45919 -8.7e-4,0.45919 -8.7e-4,0.45919 -8.7e-4,0.45919 -8.6e-4,0.45918 -8.7e-4,0.45919 -8.7e-4,0.45919 -8.7e-4,0.45919 -8.7e-4,0.45919 -8.7e-4,0.45918 -8.6e-4,0.45919 -8.7e-4,0.45919 -8.7e-4,0.45919 -8.7e-4,0.45918 -8.7e-4,0.45919 -8.7e-4,0.45919 -8.7e-4,0.45919 -8.6e-4,0.45919 -8.7e-4,0.45918 -8.7e-4,0.45919 -8.7e-4,0.45919 -8.7e-4,0.45919 -8.7e-4,0.45919 -8.6e-4,0.45918 -8.7e-4,0.45919 -8.7e-4,0.45919 -8.7e-4,0.45919 -8.7e-4,0.45918 -8.7e-4,0.45919 -8.6e-4,0.45919 -8.7e-4,0.45919 -8.7e-4,0.45919 -8.7e-4,0.45918 -8.7e-4,0.45919 -8.7e-4,0.45919 -8.7e-4,0.45919 -8.6e-4,0.45919 -8.7e-4,0.45918 -8.7e-4,0.45919 -8.7e-4,0.45919 -8.7e-4,0.45919 -8.7e-4,0.45918 -8.6e-4,0.45919 -8.7e-4,0.45919 -8.7e-4,0.45919 -8.7e-4,0.45919 -8.7e-4,0.45918 -8.7e-4,0.45919 -8.7e-4,0.45919 -8.6e-4,0.45919 -8.7e-4,0.45919 -8.7e-4,0.45918 -8.7e-4,0.45919 -8.7e-4,0.45919 -8.7e-4,0.45919 -8.6e-4,0.45918 -8.7e-4,0.45919 -8.7e-4,0.45919 -8.7e-4,0.45919 -8.7e-4,0.45919 -8.7e-4,0.45918 -8.6e-4,0.45919 -8.7e-4,0.45919 -8.7e-4,0.45919 -8.7e-4,0.45918 -8.7e-4,0.45919 -8.7e-4,0.45919 -8.7e-4,0.45919 -8.6e-4,0.45919 -8.7e-4,0.45918 -8.7e-4,0.45919 -8.7e-4,0.45919 -8.7e-4,0.45919 -8.7e-4,0.45919 -8.6e-4,0.45918 -8.7e-4,0.45919 -8.7e-4,0.45919 -8.7e-4,0.45919 -8.7e-4,0.45918 -8.7e-4,0.45919 -8.6e-4,0.45919 -8.7e-4,0.45919 -8.7e-4,0.45919 -8.7e-4,0.45918 -8.7e-4,0.45919 -8.7e-4,0.45919 -8.7e-4,0.45919 -8.6e-4,0.45919 -8.7e-4,0.45918 -8.7e-4,0.45919 -8.7e-4,0.45919 -8.7e-4,0.45919 -8.7e-4,0.45918 -8.6e-4,0.45919 -8.7e-4,0.45919 -8.7e-4,0.45919 -8.7e-4,0.45919 -8.7e-4,0.45918 -8.7e-4,0.45919 -8.7e-4,0.45919 -8.6e-4,0.45919 -8.7e-4,0.45919 -8.7e-4,0.45918 -8.7e-4,0.45919 -8.7e-4,0.45919 -8.7e-4,0.45919 -8.6e-4,0.45918 -0.45919,-8.6e-4 -0.45919,-8.7e-4 -0.45919,-8.7e-4 -0.45919,-8.7e-4 -0.45918,-8.7e-4 -0.45919,-8.7e-4 -0.45919,-8.6e-4 -0.45919,-8.7e-4 -0.45918,-8.7e-4 -0.45919,-8.7e-4 -0.45919,-8.7e-4 -0.45919,-8.7e-4 -0.45919,-8.7e-4 -0.45918,-8.6e-4 -0.45919,-8.7e-4 -0.45919,-8.7e-4 -0.45919,-8.7e-4 -0.45919,-8.7e-4 -0.45918,-8.7e-4 -0.45919,-8.6e-4 -0.45919,-8.7e-4 -0.45919,-8.7e-4 -0.45918,-8.7e-4 -0.45919,-8.7e-4 -0.45919,-8.7e-4 -0.45919,-8.6e-4 -0.45919,-8.7e-4 -0.45918,-8.7e-4 -0.45919,-8.7e-4 -0.45919,-8.7e-4 -0.45919,-8.7e-4 -0.45919,-8.7e-4 -0.45918,-8.6e-4 -0.45919,-8.7e-4 -0.45919,-8.7e-4 -0.45919,-8.7e-4 -0.45918,-8.7e-4 -0.45919,-8.7e-4 -0.45919,-8.6e-4 -0.45919,-8.7e-4 -0.45919,-8.7e-4 -0.45918,-8.7e-4 -0.45919,-8.7e-4 -0.45919,-8.7e-4 -0.45919,-8.6e-4 -0.45919,-8.7e-4 -0.45919,-8.7e-4 -0.45918,-8.7e-4 -0.45919,-8.7e-4 -0.45919,-8.7e-4 -0.45919,-8.7e-4 -0.45919,-8.6e-4 -0.45918,-8.7e-4 -0.45919,-8.7e-4 -0.45919,-8.7e-4 -0.45919,-8.7e-4 -0.45919,-8.7e-4 -0.45919,-8.6e-4 -0.45918,-8.7e-4 -0.45919,-8.7e-4 -0.45919,-8.7e-4 -0.45919,-8.7e-4 -0.45919,-8.7e-4 -0.45918,-8.7e-4 8.7e-4,-0.45918 8.6e-4,-0.45919 8.7e-4,-0.45919 8.7e-4,-0.45919 8.7e-4,-0.45918 8.7e-4,-0.45919 8.7e-4,-0.45919 8.6e-4,-0.45919 8.7e-4,-0.45919 8.7e-4,-0.45918 8.7e-4,-0.45919 8.7e-4,-0.45919 8.7e-4,-0.45919 8.6e-4,-0.45919 8.7e-4,-0.45918 8.7e-4,-0.45919 8.7e-4,-0.45919 8.7e-4,-0.45919 8.7e-4,-0.45918 8.7e-4,-0.45919 8.6e-4,-0.45919 8.7e-4,-0.45919 8.7e-4,-0.45919 8.7e-4,-0.45918 8.7e-4,-0.45919 8.7e-4,-0.45919 8.6e-4,-0.45919 8.7e-4,-0.45919 8.7e-4,-0.45918 8.7e-4,-0.45919 8.7e-4,-0.45919 8.7e-4,-0.45919 8.7e-4,-0.45918 8.6e-4,-0.45919 8.7e-4,-0.45919 8.7e-4,-0.45919 8.7e-4,-0.45919 8.7e-4,-0.45918 8.7e-4,-0.45919 8.6e-4,-0.45919 8.7e-4,-0.45919 8.7e-4,-0.45918 8.7e-4,-0.45919 8.7e-4,-0.45919 8.7e-4,-0.45919 8.6e-4,-0.45919 8.7e-4,-0.45918 8.7e-4,-0.45919 8.7e-4,-0.45919 8.7e-4,-0.45919 8.7e-4,-0.45919 8.7e-4,-0.45918 8.6e-4,-0.45919 8.7e-4,-0.45919 8.7e-4,-0.45919 8.7e-4,-0.45918 0.45919,8.6e-4 q 0.45918,8.7e-4 0.91837,0.002 0.45919,8.7e-4 0.91838,0.002 0.45919,8.7e-4 0.91837,0.002 0.45919,8.7e-4 0.91838,0.002 0.45919,8.7e-4 0.91838,0.002 0.45919,8.7e-4 0.91837,0.002 0.45919,8.7e-4 0.91838,0.002 0.45919,8.7e-4 0.91838,0.002 0.45918,8.7e-4 0.91837,0.002 l 0.45919,8.6e-4 -8.7e-4,0.45919 q -8.7e-4,0.45919 -0.002,0.91838 -8.7e-4,0.45919 -0.002,0.91837 -8.7e-4,0.45919 0.11328,0.8038 0.11414,0.34461 0.45832,0.46006 0.34417,0.11544 0.80336,0.11631 l 0.45919,8.7e-4 -8.7e-4,0.45919 q -8.7e-4,0.45919 -0.002,0.91837 -8.7e-4,0.45919 -0.002,0.91838 -8.6e-4,0.45919 -0.002,0.91838 -8.7e-4,0.45918 -0.002,0.91837 -8.7e-4,0.45919 -0.002,0.91838 -8.6e-4,0.45918 -0.002,0.91837 -8.7e-4,0.45919 -0.002,0.91838 -8.7e-4,0.45919 -0.002,0.91837 -8.7e-4,0.45919 -0.11631,0.80337 -0.11545,0.34417 -0.46006,0.45831 -0.34461,0.11415 -0.68922,0.2283 -0.3446,0.11414 -0.46005,0.45832 -0.11545,0.34417 -0.11632,0.80336 -8.7e-4,0.45919 -0.002,0.91837 -8.7e-4,0.45919 -0.002,0.91838 -8.7e-4,0.45919 -0.002,0.91837 -8.7e-4,0.45919 -0.11632,0.80337 -0.11544,0.34417 -0.46005,0.45832 -0.34461,0.11414 -0.68922,0.22829 -0.34461,0.11414 -0.46006,0.45832 -0.11544,0.34417 -0.11631,0.80336 -8.7e-4,0.45919 -0.002,0.91837 -8.7e-4,0.45919 0.11328,0.8038 0.11414,0.34461 0.45831,0.46006 0.34418,0.11544 0.80337,0.11631 0.45918,8.7e-4 0.91838,0.002 0.45918,8.7e-4 0.91837,0.002 0.45919,8.6e-4 0.91838,0.002 0.45918,8.7e-4 0.91837,0.002 0.45919,8.7e-4 0.91838,0.002 0.45919,8.7e-4 0.91837,0.002 0.45919,8.7e-4 0.91838,0.002 0.45919,8.7e-4 0.8038,-0.11328 0.3446,-0.11414 0.46005,-0.45832 0.11545,-0.34417 0.11632,-0.80336 8.7e-4,-0.45919 0.002,-0.91837 8.6e-4,-0.45919 -0.11328,-0.8038 -0.11415,-0.34461 -0.45832,-0.46006 -0.34417,-0.11544 -0.80336,-0.11631 -0.45919,-8.7e-4 -0.91838,-0.002 -0.45919,-8.7e-4 -0.80336,-0.11632 -0.34417,-0.11544 -0.45832,-0.46005 -0.11415,-0.34461 0.001,-0.68878 0.11545,-0.34418 0.46006,-0.45832 0.34461,-0.11415 0.68922,-0.22829 0.3446,-0.11415 0.46005,-0.45832 0.11545,-0.34418 0.11632,-0.80337 8.7e-4,-0.45918 0.002,-0.91837 8.6e-4,-0.45919 0.11631,-0.80336 0.11545,-0.34418 0.46006,-0.45832 0.34461,-0.11415 0.80379,-0.11328 l 0.45919,8.7e-4 -8.7e-4,0.45919 q -8.6e-4,0.45918 -0.002,0.91837 -8.7e-4,0.45919 -0.002,0.91838 -8.7e-4,0.45919 0.11328,0.80379 0.11414,0.34461 0.45832,0.46006 0.34417,0.11545 0.68834,0.2309 0.34418,0.11544 0.45832,0.46005 0.11415,0.34461 0.11328,0.8038 -8.7e-4,0.45919 -0.002,0.91837 -8.6e-4,0.45919 -0.002,0.91838 -8.7e-4,0.45919 -0.002,0.91838 -8.7e-4,0.45918 0.11328,0.80379 0.11414,0.34461 0.45832,0.46006 0.34417,0.11545 0.80336,0.11631 0.45919,8.7e-4 0.91837,0.002 0.45919,8.7e-4 0.91838,0.002 0.45919,8.7e-4 0.91838,0.002 0.45918,8.6e-4 0.91837,0.002 0.45919,8.7e-4 0.91838,0.002 0.45918,8.7e-4 0.80379,-0.11328 0.34461,-0.11414 0.46006,-0.45832 0.11545,-0.34417 0.11632,-0.80336 8.6e-4,-0.45919 0.002,-0.91837 8.7e-4,-0.45919 -0.11327,-0.8038 -0.11415,-0.34461 -0.45832,-0.46006 -0.34418,-0.11545 -0.80337,-0.11631 -0.45918,-8.7e-4 -0.91837,-0.002 -0.45919,-8.7e-4 -0.80336,-0.11632 -0.34418,-0.11545 -0.45832,-0.46005 -0.11415,-0.34461 -0.11328,-0.8038 8.7e-4,-0.45919 0.002,-0.91838 8.7e-4,-0.45918 0.002,-0.91837 8.7e-4,-0.45919 0.002,-0.91838 8.7e-4,-0.45918 -0.11328,-0.80379 -0.11414,-0.34461 -0.45832,-0.46006 -0.34417,-0.11545 -0.68834,-0.2309 -0.34418,-0.11544 -0.45832,-0.46005 -0.11415,-0.34461 -0.11328,-0.8038 8.7e-4,-0.45919 0.002,-0.91837 8.7e-4,-0.45919 0.002,-0.91838 8.7e-4,-0.45919 0.002,-0.91837 8.7e-4,-0.45919 0.002,-0.91838 8.7e-4,-0.45919 0.002,-0.91838 8.7e-4,-0.45918 0.002,-0.91837 8.7e-4,-0.45919 0.002,-0.91838 8.7e-4,-0.45919 0.002,-0.91837 8.6e-4,-0.45919 0.002,-0.91838 8.7e-4,-0.45919 0.002,-0.91837 l 8.7e-4,-0.45919 0.45919,8.7e-4 q 0.45918,8.6e-4 0.91837,0.002 0.45919,8.7e-4 0.91838,0.002 0.45918,8.7e-4 0.80379,-0.11328 0.34461,-0.11414 0.46006,-0.45832 0.11545,-0.34417 0.11632,-0.80336 8.6e-4,-0.45919 0.002,-0.91837 8.7e-4,-0.45919 0.002,-0.91838 8.7e-4,-0.45919 0.002,-0.91838 8.6e-4,-0.45918 -0.11328,-0.80379 -0.11415,-0.34461 -0.45832,-0.46006 -0.34417,-0.11545 -0.68835,-0.23089 -0.34417,-0.11545 -0.45832,-0.46006 -0.11414,-0.34461 -0.11327,-0.8038 8.6e-4,-0.45918 0.002,-0.91837 8.7e-4,-0.45919 0.002,-0.91838 8.7e-4,-0.45919 0.002,-0.91837 8.6e-4,-0.45919 0.002,-0.91838 8.7e-4,-0.45919 0.002,-0.91837 8.7e-4,-0.45919 -0.11328,-0.8038 -0.11414,-0.34461 -0.45832,-0.46006 -0.34417,-0.11545 -0.80336,-0.11631 l -0.45919,-8.7e-4 8.7e-4,-0.45919 q 8.7e-4,-0.45919 0.002,-0.91838 8.7e-4,-0.45918 0.002,-0.91837 8.6e-4,-0.45919 0.002,-0.91838 8.7e-4,-0.45918 0.002,-0.91837 8.7e-4,-0.45919 -0.11328,-0.8038 -0.11414,-0.34461 -0.45832,-0.46005 -0.34417,-0.11545 -0.68834,-0.2309 -0.34418,-0.11545 -0.45832,-0.46006 -0.11415,-0.34461 -0.2283,-0.68921 -0.11414,-0.34461 -0.45831,-0.46006 -0.34418,-0.11545 -0.80337,-0.11632 -0.45918,-8.7e-4 -0.91837,-0.002 -0.45919,-8.7e-4 -0.91838,-0.002 -0.45919,-8.7e-4 -0.91837,-0.002 -0.45919,-8.7e-4 -0.91838,-0.002 -0.45919,-8.7e-4 -0.91837,-0.002 -0.45919,-8.7e-4 -0.8038,0.11328 -0.34461,0.11414 -0.46006,0.45832 -0.11545,0.34417 -0.11631,0.80336 -8.7e-4,0.45919 -0.002,0.91837 -8.7e-4,0.45919 -0.002,0.91838 -8.7e-4,0.45919 -0.002,0.91837 -8.7e-4,0.45919 -0.002,0.91838 -8.7e-4,0.45919 -0.002,0.91838 -8.7e-4,0.45918 -0.002,0.91837 -8.6e-4,0.45919 -0.002,0.91838 -8.7e-4,0.45918 -0.002,0.91837 -8.7e-4,0.45919 -0.002,0.91838 -8.6e-4,0.45919 -0.11631,0.80336 -0.11545,0.34417 -0.46006,0.45832 -0.34461,0.11415 -0.80379,0.11328 l -0.4592,-8.7e-4 8.7e-4,-0.45919 q 8.7e-4,-0.45919 0.002,-0.91838 8.7e-4,-0.45918 0.002,-0.91837 8.7e-4,-0.45919 0.002,-0.91838 8.7e-4,-0.45918 0.002,-0.91837 8.7e-4,-0.45919 0.002,-0.91838 8.7e-4,-0.45919 0.002,-0.91837 8.7e-4,-0.45919 0.002,-0.91838 8.7e-4,-0.45919 0.002,-0.91838 8.7e-4,-0.45918 0.002,-0.91837 8.7e-4,-0.45919 0.002,-0.91838 8.7e-4,-0.45918 -0.11327,-0.80379 -0.11415,-0.34461 -0.45832,-0.46006 -0.34418,-0.11545 -0.80337,-0.11632 -0.45918,-8.6e-4 -0.91837,-0.002 -0.45919,-8.7e-4 -0.91838,-0.002 -0.45919,-8.7e-4 -0.91837,-0.002 -0.45919,-8.6e-4 -0.91838,-0.002 -0.45919,-8.7e-4 -0.91838,-0.002 -0.45919,-8.7e-4 -0.80379,0.11328 -0.34461,0.11414 -0.46006,0.45832 -0.11545,0.34417 -0.11632,0.80336 -8.6e-4,0.45919 -0.002,0.91837 -8.6e-4,0.45919 -0.002,0.91838 -8.6e-4,0.45919 -0.002,0.91838 -8.7e-4,0.45918 -0.11631,0.80336 -0.11545,0.34417 -0.46006,0.45832 -0.34461,0.11414 -0.8038,0.11327 l -0.45918,-8.6e-4 8.6e-4,-0.45919 8.7e-4,-0.45919 8.7e-4,-0.45919 8.7e-4,-0.45919 8.7e-4,-0.45918 8.7e-4,-0.45919 8.7e-4,-0.45919 8.6e-4,-0.45919 8.7e-4,-0.45919 8.7e-4,-0.45918 8.7e-4,-0.45919 8.7e-4,-0.45919 8.7e-4,-0.45919 8.6e-4,-0.45918 8.7e-4,-0.45919 8.7e-4,-0.45919 8.7e-4,-0.45919 8.7e-4,-0.45919 8.7e-4,-0.45918 8.7e-4,-0.45919 8.6e-4,-0.45919 8.7e-4,-0.45919 8.7e-4,-0.45919 8.7e-4,-0.45918 8.7e-4,-0.45919 8.7e-4,-0.45919 8.6e-4,-0.45919 8.7e-4,-0.45918 8.7e-4,-0.45919 8.7e-4,-0.45919 8.7e-4,-0.45919 8.7e-4,-0.45919 8.6e-4,-0.45918 8.7e-4,-0.45919 8.7e-4,-0.45919 8.7e-4,-0.45919 8.7e-4,-0.45919 8.7e-4,-0.45918 8.7e-4,-0.45919 8.6e-4,-0.45919 8.7e-4,-0.45919 8.7e-4,-0.45918 8.7e-4,-0.45919 m 9.13665,24.92831 -6.5e-4,0.34439 -2.2e-4,0.1148 -2.2e-4,0.11479 4.4e-4,-0.22959 q 4.3e-4,-0.2296 8.6e-4,-0.45919 l 4.4e-4,-0.22959 -6.5e-4,0.34439 m 11.02745,-3.65266 -6.5e-4,0.34439 -2.1e-4,0.11479 -2.2e-4,0.1148 4.3e-4,-0.22959 q 4.4e-4,-0.2296 8.7e-4,-0.45919 l 4.4e-4,-0.22959 -6.6e-4,0.34439 m 2.31266,-8.83503 q 0.45919,8.7e-4 0.8038,-0.11327 0.34461,-0.11415 0.46005,-0.45832 0.11545,-0.34418 0.11632,-0.80337 8.7e-4,-0.45918 0.002,-0.91837 8.7e-4,-0.45919 0.002,-0.91838 8.7e-4,-0.45918 0.002,-0.91837 8.7e-4,-0.45919 0.002,-0.91838 8.7e-4,-0.45919 0.002,-0.91837 8.7e-4,-0.45919 0.002,-0.91838 8.7e-4,-0.45919 0.002,-0.91838 8.7e-4,-0.45918 -0.11328,-0.80379 -0.11414,-0.34461 -0.45832,-0.46006 -0.34417,-0.11545 -0.68835,-0.23089 -0.34417,-0.11545 -0.45832,-0.46006 -0.11414,-0.34461 -0.22829,-0.68922 -0.11414,-0.3446 -0.45832,-0.46005 -0.34417,-0.11545 -0.80336,-0.11632 -0.45919,-8.7e-4 -0.91837,-0.002 -0.45919,-8.6e-4 -0.91838,-0.002 -0.45919,-8.7e-4 -0.91837,-0.002 -0.45919,-8.7e-4 -0.91838,-0.002 -0.45919,-8.6e-4 -0.91838,-0.002 -0.45918,-8.7e-4 -0.80379,0.11327 -0.34461,0.11415 -0.46006,0.45832 -0.11545,0.34418 -0.23089,0.68835 -0.11545,0.34417 -0.46006,0.45832 -0.34461,0.11415 -0.68922,0.22829 -0.3446,0.11415 -0.46005,0.45832 -0.11545,0.34417 -0.11632,0.80336 -8.7e-4,0.45919 -0.002,0.91838 -8.7e-4,0.45919 -0.002,0.91837 -8.7e-4,0.45919 -0.002,0.91838 -8.7e-4,0.45919 0.11328,0.8038 0.11414,0.3446 0.45832,0.46005 0.34417,0.11545 0.68834,0.2309 0.34418,0.11545 0.45832,0.46005 0.11415,0.34461 0.11328,0.8038 -8.7e-4,0.45919 -0.002,0.91838 -8.7e-4,0.45918 0.11328,0.80379 0.11415,0.34461 0.45832,0.46006 0.34417,0.11545 0.80336,0.11632 0.45919,8.6e-4 0.91838,0.002 0.45919,8.7e-4 0.91837,0.002 0.45919,8.7e-4 0.91838,0.002 0.45919,8.6e-4 0.91837,0.002 0.45919,8.7e-4 0.91838,0.002 0.45919,8.7e-4 0.91838,0.002 0.45918,8.6e-4 0.91837,0.002 m -2.33741,21.92188 -2.1e-4,0.1148 -6.5e-4,0.34439 -6.6e-4,0.34439 4.4e-4,-0.22959 q 4.3e-4,-0.2296 8.7e-4,-0.45919 l 4.3e-4,-0.2296 -2.2e-4,0.1148 m -3.69521,11.47275 6.5e-4,-0.34439 2.2e-4,-0.1148 2.2e-4,-0.1148 -4.4e-4,0.2296 q -4.3e-4,0.22959 -8.7e-4,0.45919 l -4.3e-4,0.22959 6.5e-4,-0.34439 m -5.37744,-9.53835 -0.11479,-2.2e-4 -0.34439,-6.5e-4 -0.3444,-6.5e-4 0.2296,4.3e-4 q 0.22959,4.4e-4 0.45919,8.7e-4 l 0.22959,4.3e-4 -0.1148,-2.1e-4 m -1.94525,-3.33281 6.5e-4,-0.34439 2.2e-4,-0.11479 2.1e-4,-0.1148 -4.3e-4,0.22959 q -4.3e-4,0.2296 -8.7e-4,0.45919 l -4.3e-4,0.2296 6.5e-4,-0.3444"
       id="path2"
       inkscape:connector-curvature="0" /><path
       style="fill:#8d8d8d;fill-opacity:1;stroke-width:0.918377"
       d="m 144.01453,136.26116 8.7e-4,-0.45919 0.45919,8.7e-4 q 0.45919,8.6e-4 0.91837,0.002 0.45919,8.7e-4 0.91838,0.002 0.45919,8.7e-4 0.80336,0.11632 0.34417,0.11545 0.45832,0.46005 0.11415,0.34461 0.11328,0.8038 -8.7e-4,0.45919 -0.002,0.91837 -8.7e-4,0.45919 -0.002,0.91838 -8.6e-4,0.45919 -0.002,0.91838 -8.7e-4,0.45918 -0.002,0.91837 -8.7e-4,0.45919 -0.002,0.91838 -8.7e-4,0.45919 -0.11631,0.80336 -0.11545,0.34417 -0.46006,0.45832 -0.34461,0.11414 -0.68922,0.22829 -0.3446,0.11415 -0.46005,0.45832 -0.11545,0.34417 -0.11632,0.80336 -8.7e-4,0.45919 -0.002,0.91838 -8.6e-4,0.45918 -0.002,0.91837 -8.7e-4,0.45919 -0.002,0.91838 -8.7e-4,0.45919 -0.002,0.91837 -8.6e-4,0.45919 -0.002,0.91838 -8.7e-4,0.45919 -0.002,0.91837 -8.7e-4,0.45919 -0.002,0.91838 -8.7e-4,0.45919 -0.11631,0.80336 -0.11545,0.34418 -0.46006,0.45832 -0.34461,0.11415 -0.8038,0.11328 -0.45918,-8.7e-4 -0.91837,-0.002 -0.45919,-8.7e-4 -0.80336,-0.11631 -0.34418,-0.11545 -0.45833,-0.46006 -0.11414,-0.34461 -0.11327,-0.8038 8.7e-4,-0.45918 0.002,-0.91837 8.7e-4,-0.45919 0.002,-0.91838 8.7e-4,-0.45919 0.002,-0.91837 8.7e-4,-0.45919 0.002,-0.91838 8.7e-4,-0.45919 0.002,-0.91838 8.7e-4,-0.45918 0.002,-0.91837 8.7e-4,-0.45919 0.002,-0.91838 8.7e-4,-0.45918 0.002,-0.91837 8.7e-4,-0.45919 0.002,-0.91838 8.7e-4,-0.45919 0.002,-0.91837 l 8.7e-4,-0.45919 0.45919,8.7e-4 q 0.45918,8.7e-4 0.80379,-0.11328 0.34461,-0.11415 0.46006,-0.45832 0.11545,-0.34417 0.11631,-0.80336 8.7e-4,-0.45919 0.002,-0.91838 8.7e-4,-0.45919 0.002,-0.91837 8.7e-4,-0.45919 0.002,-0.91838 8.7e-4,-0.45919 0.002,-0.91837 m -1.84609,4.93279 -2.1e-4,0.1148 -6.6e-4,0.34439 -6.5e-4,0.34439 4.4e-4,-0.22959 q 4.3e-4,-0.2296 8.7e-4,-0.45919 l 4.3e-4,-0.2296 -2.2e-4,0.1148 m 1.84718,-5.50678 -2.2e-4,0.1148 -6.5e-4,0.34439 -6.5e-4,0.34439 4.3e-4,-0.22959 q 4.4e-4,-0.2296 8.7e-4,-0.45919 l 4.3e-4,-0.2296 -2.1e-4,0.1148"
       id="path7"
       inkscape:connector-curvature="0" /></g></svg>
