<?xml version="1.0" encoding="UTF-8" standalone="no"?>
<!-- Created with Inkscape (http://www.inkscape.org/) -->

<svg
   xmlns:dc="http://purl.org/dc/elements/1.1/"
   xmlns:cc="http://creativecommons.org/ns#"
   xmlns:rdf="http://www.w3.org/1999/02/22-rdf-syntax-ns#"
   xmlns:svg="http://www.w3.org/2000/svg"
   xmlns="http://www.w3.org/2000/svg"
   xmlns:sodipodi="http://sodipodi.sourceforge.net/DTD/sodipodi-0.dtd"
   xmlns:inkscape="http://www.inkscape.org/namespaces/inkscape"
   width="210mm"
   height="297mm"
   viewBox="0 0 210 297"
   version="1.1"
   id="svg8"
   inkscape:version="0.92.4 (5da689c313, 2019-01-14)"
   sodipodi:docname="floors.svg">
  <defs
     id="defs2" />
  <sodipodi:namedview
     id="base"
     pagecolor="#ffffff"
     bordercolor="#666666"
     borderopacity="1.0"
     inkscape:pageopacity="0.0"
     inkscape:pageshadow="2"
     inkscape:zoom="3.959798"
     inkscape:cx="156.68822"
     inkscape:cy="1006.5537"
     inkscape:document-units="mm"
     inkscape:current-layer="layer1"
     showgrid="false"
     inkscape:window-width="1920"
     inkscape:window-height="1017"
     inkscape:window-x="-8"
     inkscape:window-y="-8"
     inkscape:window-maximized="1"
     showguides="true"
     inkscape:guide-bbox="true" />
  <metadata
     id="metadata5">
    <rdf:RDF>
      <cc:Work
         rdf:about="">
        <dc:format>image/svg+xml</dc:format>
        <dc:type
           rdf:resource="http://purl.org/dc/dcmitype/StillImage" />
        <dc:title />
      </cc:Work>
    </rdf:RDF>
  </metadata>
  <g
     inkscape:label="Capa 1"
     inkscape:groupmode="layer"
     id="layer1">
    <rect
       style="fill:#b3b3b3;fill-opacity:1;stroke:none;stroke-width:0.5"
       id="rect815"
       width="29.293156"
       height="6.069797"
       x="12.095239"
       y="14.840774" />
    <path
       style="fill:#e3dedb;fill-opacity:1;stroke:none;stroke-width:1.88976383"
       d="M 107.57031 41.246094 C 107.20457 41.238953 106.74667 41.264198 106.16797 41.324219 C 101.53832 41.804387 104.95151 42.902018 101.48828 46.011719 C 99.352468 47.929509 98.26152 47.334756 97.507812 47.660156 C 97.101542 45.383854 98.875992 45.195427 95.476562 43.480469 C 91.320951 41.384029 93.600076 44.151886 89.005859 44.898438 C 84.411643 45.644989 85.697909 42.297177 82.419922 45.601562 C 79.342289 48.70398 82.094732 47.736897 81.855469 51.414062 C 81.674274 51.038225 81.369986 50.568004 80.875 49.927734 C 78.028197 46.245361 78.893338 49.725716 74.425781 48.419922 C 69.958224 47.114128 72.561543 44.647242 68.179688 46.216797 C 64.167853 47.653812 66.814106 47.994985 65.279297 50.992188 C 65.217567 50.556972 64.988347 49.957977 64.490234 49.017578 C 62.311592 44.904467 62.572763 48.480597 58.392578 46.433594 C 54.212394 44.386591 57.196366 42.398228 52.611328 43.199219 C 48.473703 43.922048 50.891398 44.698842 49.025391 47.298828 C 47.905562 45.85673 47.294416 47.853991 44.029297 45.962891 C 40.001601 43.630119 43.117925 41.853816 38.488281 42.333984 C 33.858637 42.814153 37.271818 43.911784 33.808594 47.021484 C 30.345369 50.131185 29.620456 46.620442 28.646484 51.171875 C 27.672513 55.723308 29.770897 52.81564 31.658203 57.070312 C 33.545509 61.324985 29.982069 60.928947 34.009766 63.261719 C 38.037462 65.594491 35.921137 62.700871 40.550781 62.220703 C 45.180425 61.740535 43.702791 65.008138 47.166016 61.898438 C 47.337134 61.744787 47.421618 61.642012 47.560547 61.507812 C 47.414156 62.673692 46.962224 63.097165 49.599609 64.388672 C 53.779794 66.435675 51.467696 63.695522 56.052734 62.894531 C 60.637773 62.09354 59.390343 65.454361 62.628906 62.111328 C 63.158653 61.564493 63.499781 61.15274 63.724609 60.810547 C 64.126912 61.105601 64.56899 61.520989 65.058594 62.154297 C 67.905397 65.83667 64.348849 66.301628 68.816406 67.607422 C 73.283963 68.913216 70.538066 66.606664 74.919922 65.037109 C 79.301778 63.467555 78.647097 66.993824 81.269531 63.148438 C 82.137237 61.876084 82.378697 61.235493 82.316406 60.775391 C 83.102045 60.806068 84.029467 60.097528 86.472656 61.330078 C 90.628267 63.426518 87.618674 65.377411 92.212891 64.630859 C 96.807107 63.884308 93.335294 62.986026 96.613281 59.681641 C 98.16481 58.117617 99.17994 58.07093 99.904297 57.966797 C 100.17572 60.258463 98.396766 60.344886 101.68945 62.251953 C 105.71715 64.584725 103.60082 61.689153 108.23047 61.208984 C 112.86011 60.728816 111.38248 63.996419 114.8457 60.886719 C 115.23515 60.537029 115.51245 60.256833 115.74414 60 C 115.85202 60.12461 115.95776 60.241131 116.07031 60.386719 C 118.91712 64.069092 115.36252 64.53405 119.83008 65.839844 C 124.29764 67.145638 121.55174 64.839086 125.93359 63.269531 C 129.53533 61.979412 129.73579 64.123192 131.14844 62.794922 C 130.99941 63.945085 130.56775 64.366565 133.18945 65.650391 C 137.36964 67.697393 135.05754 64.957241 139.64258 64.15625 C 144.22762 63.355259 142.98019 66.718033 146.21875 63.375 C 147.35195 62.205248 147.67405 61.613169 147.65234 61.136719 C 148.22061 61.186696 148.92603 61.363129 149.85938 61.833984 C 154.01499 63.930424 151.00539 65.88327 155.59961 65.136719 C 160.19383 64.390167 156.72397 63.491886 160.00195 60.1875 C 163.27994 56.883114 164.20634 60.34615 164.91602 55.746094 C 165.62569 51.146037 163.69806 54.169912 161.56836 50.03125 C 159.43866 45.892588 163.01889 46.080815 158.86328 43.984375 C 154.70767 41.887935 156.98875 44.655792 152.39453 45.402344 C 147.80031 46.148895 149.08658 42.803036 145.80859 46.107422 C 144.6197 47.30589 144.30685 47.894796 144.34961 48.380859 C 143.75797 48.358063 143.00419 48.195666 141.98242 47.695312 C 137.80224 45.64831 140.78621 43.6619 136.20117 44.462891 C 131.89875 45.214509 134.699 46.014913 132.38477 48.873047 C 132.23193 48.647161 132.10715 48.445284 131.88672 48.160156 C 129.03992 44.477783 129.90506 47.956184 125.4375 46.650391 C 120.96994 45.344597 123.57326 42.879664 119.19141 44.449219 C 116.97618 45.242699 116.79665 45.702315 116.82031 46.457031 C 115.62538 44.724866 115.08173 46.904608 111.70898 44.951172 C 108.18475 42.909996 110.13048 41.296078 107.57031 41.246094 z M 81.525391 53.273438 C 81.344389 53.881541 81.122576 54.315426 80.890625 54.646484 C 81.055147 54.01162 81.296895 53.600162 81.525391 53.273438 z "
       transform="scale(0.26458333)"
       id="path817" />
    <g
       id="g858"
       inkscape:export-filename="D:\xampp\htdocs\proyectos\go-jetpack-game\assets\img\floors\floor1.png"
       inkscape:export-xdpi="200"
       inkscape:export-ydpi="200">
      <rect
         style="fill:#b3b3b3;fill-opacity:1;stroke:none;stroke-width:0.5"
         id="rect850"
         width="29.293156"
         height="6.069797"
         x="54.428577"
         y="14.840774" />
      <path
         id="path842"
         transform="scale(0.26458333)"
         d="M 205.71484 56.091797 L 205.71484 63.009766 C 206.08252 62.804233 206.54253 62.458284 207.16602 61.898438 C 207.33715 61.7448 207.42162 61.641997 207.56055 61.507812 C 207.41417 62.673691 206.96222 63.097166 209.59961 64.388672 C 213.7798 66.435675 211.4677 63.695523 216.05273 62.894531 C 220.63777 62.093544 219.39034 65.454362 222.62891 62.111328 C 223.15865 61.564495 223.49978 61.152742 223.72461 60.810547 C 224.12691 61.105615 224.56899 61.520988 225.05859 62.154297 C 227.9054 65.836668 224.34885 66.301629 228.81641 67.607422 C 233.28396 68.913215 230.53807 66.606664 234.91992 65.037109 C 239.30178 63.467555 238.64709 66.993823 241.26953 63.148438 C 242.13724 61.876082 242.3787 61.235495 242.31641 60.775391 C 243.10205 60.806005 244.02947 60.097529 246.47266 61.330078 C 250.62827 63.426518 247.61867 65.377411 252.21289 64.630859 C 256.80711 63.884308 253.3353 62.986029 256.61328 59.681641 C 258.16481 58.117619 259.17994 58.07093 259.9043 57.966797 C 260.1757 60.258464 258.39677 60.344887 261.68945 62.251953 C 265.71715 64.584727 263.60082 61.689154 268.23047 61.208984 C 272.86011 60.728814 271.38248 63.996435 274.8457 60.886719 C 275.23515 60.537037 275.51245 60.256834 275.74414 60 C 275.85201 60.124611 275.95776 60.241135 276.07031 60.386719 C 278.91712 64.069094 275.36252 64.534051 279.83008 65.839844 C 284.29764 67.145637 281.55175 64.839086 285.93359 63.269531 C 289.53534 61.979412 289.73579 64.123191 291.14844 62.794922 C 290.99941 63.945085 290.56775 64.366564 293.18945 65.650391 C 297.36964 67.697394 295.05754 64.957241 299.64258 64.15625 C 304.22762 63.355259 302.98019 66.71803 306.21875 63.375 C 307.35195 62.205248 307.67406 61.613166 307.65234 61.136719 C 308.22061 61.186684 308.92603 61.363116 309.85938 61.833984 C 314.01499 63.930424 311.00539 65.88327 315.59961 65.136719 C 315.94599 65.080432 316.16668 65.019916 316.42773 64.960938 L 316.42773 56.091797 L 205.71484 56.091797 z "
         style="fill:#e3dedb;fill-opacity:1;stroke:none;stroke-width:1.88976383" />
    </g>
    <rect
       y="37.119667"
       x="2.6058779"
       height="10.22306"
       width="84.791252"
       id="rect827"
       style="fill:#e3dedb;fill-opacity:1;stroke:none;stroke-width:0.5" />
  </g>
</svg>
