<?xml version="1.0" encoding="UTF-8" standalone="no"?>
<!-- Created with Inkscape (http://www.inkscape.org/) -->

<svg
   xmlns:dc="http://purl.org/dc/elements/1.1/"
   xmlns:cc="http://creativecommons.org/ns#"
   xmlns:rdf="http://www.w3.org/1999/02/22-rdf-syntax-ns#"
   xmlns:svg="http://www.w3.org/2000/svg"
   xmlns="http://www.w3.org/2000/svg"
   xmlns:sodipodi="http://sodipodi.sourceforge.net/DTD/sodipodi-0.dtd"
   xmlns:inkscape="http://www.inkscape.org/namespaces/inkscape"
   width="210mm"
   height="297mm"
   viewBox="0 0 210 297"
   version="1.1"
   id="svg8"
   inkscape:version="0.92.4 (5da689c313, 2019-01-14)"
   sodipodi:docname="floors.svg">
  <defs
     id="defs2" />
  <sodipodi:namedview
     id="base"
     pagecolor="#ffffff"
     bordercolor="#666666"
     borderopacity="1.0"
     inkscape:pageopacity="0.0"
     inkscape:pageshadow="2"
     inkscape:zoom="5.6"
     inkscape:cx="118.51343"
     inkscape:cy="899.97699"
     inkscape:document-units="mm"
     inkscape:current-layer="layer1"
     showgrid="false"
     inkscape:window-width="1920"
     inkscape:window-height="1017"
     inkscape:window-x="-8"
     inkscape:window-y="-8"
     inkscape:window-maximized="1"
     showguides="true"
     inkscape:guide-bbox="true">
    <sodipodi:guide
       position="41.388393,268.23503"
       orientation="1,0"
       id="guide860"
       inkscape:locked="false" />
    <sodipodi:guide
       position="12.093946,264.77223"
       orientation="1,0"
       id="guide862"
       inkscape:locked="false" />
  </sodipodi:namedview>
  <metadata
     id="metadata5">
    <rdf:RDF>
      <cc:Work
         rdf:about="">
        <dc:format>image/svg+xml</dc:format>
        <dc:type
           rdf:resource="http://purl.org/dc/dcmitype/StillImage" />
        <dc:title />
      </cc:Work>
    </rdf:RDF>
  </metadata>
  <g
     inkscape:label="Capa 1"
     inkscape:groupmode="layer"
     id="layer1">
    <rect
       style="fill:#b3b3b3;fill-opacity:1;stroke:none;stroke-width:0.5"
       id="rect815"
       width="29.293156"
       height="6.069797"
       x="12.095239"
       y="14.840774" />
    <path
       style="fill:#e3dedb;fill-opacity:1;stroke:none;stroke-width:1.88976383"
       d="M 107.57031 41.246094 C 107.20457 41.238953 106.74667 41.264198 106.16797 41.324219 C 101.53832 41.804387 104.95151 42.902018 101.48828 46.011719 C 99.352468 47.929509 98.26152 47.334756 97.507812 47.660156 C 97.101542 45.383854 98.875992 45.195427 95.476562 43.480469 C 91.320951 41.384029 93.600076 44.151886 89.005859 44.898438 C 84.411643 45.644989 85.697909 42.297177 82.419922 45.601562 C 79.342289 48.70398 82.094732 47.736897 81.855469 51.414062 C 81.674274 51.038225 81.369986 50.568004 80.875 49.927734 C 78.028197 46.245361 78.893338 49.725716 74.425781 48.419922 C 69.958224 47.114128 72.561543 44.647242 68.179688 46.216797 C 64.167853 47.653812 66.814106 47.994985 65.279297 50.992188 C 65.217567 50.556972 64.988347 49.957977 64.490234 49.017578 C 62.311592 44.904467 62.572763 48.480597 58.392578 46.433594 C 54.212394 44.386591 57.196366 42.398228 52.611328 43.199219 C 48.473703 43.922048 50.891398 44.698842 49.025391 47.298828 C 47.905562 45.85673 47.294416 47.853991 44.029297 45.962891 C 40.001601 43.630119 43.117925 41.853816 38.488281 42.333984 C 33.858637 42.814153 37.271818 43.911784 33.808594 47.021484 C 30.345369 50.131185 29.620456 46.620442 28.646484 51.171875 C 27.672513 55.723308 29.770897 52.81564 31.658203 57.070312 C 33.545509 61.324985 29.982069 60.928947 34.009766 63.261719 C 38.037462 65.594491 35.921137 62.700871 40.550781 62.220703 C 45.180425 61.740535 43.702791 65.008138 47.166016 61.898438 C 47.337134 61.744787 47.421618 61.642012 47.560547 61.507812 C 47.414156 62.673692 46.962224 63.097165 49.599609 64.388672 C 53.779794 66.435675 51.467696 63.695522 56.052734 62.894531 C 60.637773 62.09354 59.390343 65.454361 62.628906 62.111328 C 63.158653 61.564493 63.499781 61.15274 63.724609 60.810547 C 64.126912 61.105601 64.56899 61.520989 65.058594 62.154297 C 67.905397 65.83667 64.348849 66.301628 68.816406 67.607422 C 73.283963 68.913216 70.538066 66.606664 74.919922 65.037109 C 79.301778 63.467555 78.647097 66.993824 81.269531 63.148438 C 82.137237 61.876084 82.378697 61.235493 82.316406 60.775391 C 83.102045 60.806068 84.029467 60.097528 86.472656 61.330078 C 90.628267 63.426518 87.618674 65.377411 92.212891 64.630859 C 96.807107 63.884308 93.335294 62.986026 96.613281 59.681641 C 98.16481 58.117617 99.17994 58.07093 99.904297 57.966797 C 100.17572 60.258463 98.396766 60.344886 101.68945 62.251953 C 105.71715 64.584725 103.60082 61.689153 108.23047 61.208984 C 112.86011 60.728816 111.38248 63.996419 114.8457 60.886719 C 115.23515 60.537029 115.51245 60.256833 115.74414 60 C 115.85202 60.12461 115.95776 60.241131 116.07031 60.386719 C 118.91712 64.069092 115.36252 64.53405 119.83008 65.839844 C 124.29764 67.145638 121.55174 64.839086 125.93359 63.269531 C 129.53533 61.979412 129.73579 64.123192 131.14844 62.794922 C 130.99941 63.945085 130.56775 64.366565 133.18945 65.650391 C 137.36964 67.697393 135.05754 64.957241 139.64258 64.15625 C 144.22762 63.355259 142.98019 66.718033 146.21875 63.375 C 147.35195 62.205248 147.67405 61.613169 147.65234 61.136719 C 148.22061 61.186696 148.92603 61.363129 149.85938 61.833984 C 154.01499 63.930424 151.00539 65.88327 155.59961 65.136719 C 160.19383 64.390167 156.72397 63.491886 160.00195 60.1875 C 163.27994 56.883114 164.20634 60.34615 164.91602 55.746094 C 165.62569 51.146037 163.69806 54.169912 161.56836 50.03125 C 159.43866 45.892588 163.01889 46.080815 158.86328 43.984375 C 154.70767 41.887935 156.98875 44.655792 152.39453 45.402344 C 147.80031 46.148895 149.08658 42.803036 145.80859 46.107422 C 144.6197 47.30589 144.30685 47.894796 144.34961 48.380859 C 143.75797 48.358063 143.00419 48.195666 141.98242 47.695312 C 137.80224 45.64831 140.78621 43.6619 136.20117 44.462891 C 131.89875 45.214509 134.699 46.014913 132.38477 48.873047 C 132.23193 48.647161 132.10715 48.445284 131.88672 48.160156 C 129.03992 44.477783 129.90506 47.956184 125.4375 46.650391 C 120.96994 45.344597 123.57326 42.879664 119.19141 44.449219 C 116.97618 45.242699 116.79665 45.702315 116.82031 46.457031 C 115.62538 44.724866 115.08173 46.904608 111.70898 44.951172 C 108.18475 42.909996 110.13048 41.296078 107.57031 41.246094 z M 81.525391 53.273438 C 81.344389 53.881541 81.122576 54.315426 80.890625 54.646484 C 81.055147 54.01162 81.296895 53.600162 81.525391 53.273438 z "
       transform="scale(0.26458333)"
       id="path817" />
    <g
       id="g858"
       inkscape:export-filename="D:\xampp\htdocs\proyectos\go-jetpack-game\assets\img\floors\floor1.png"
       inkscape:export-xdpi="200"
       inkscape:export-ydpi="200">
      <rect
         style="fill:#b3b3b3;fill-opacity:1;stroke:none;stroke-width:0.5"
         id="rect850"
         width="29.293156"
         height="6.069797"
         x="54.428577"
         y="14.840774" />
      <path
         id="path842"
         transform="scale(0.26458333)"
         d="M 205.71484 56.091797 L 205.71484 63.009766 C 206.08252 62.804233 206.54253 62.458284 207.16602 61.898438 C 207.33715 61.7448 207.42162 61.641997 207.56055 61.507812 C 207.41417 62.673691 206.96222 63.097166 209.59961 64.388672 C 213.7798 66.435675 211.4677 63.695523 216.05273 62.894531 C 220.63777 62.093544 219.39034 65.454362 222.62891 62.111328 C 223.15865 61.564495 223.49978 61.152742 223.72461 60.810547 C 224.12691 61.105615 224.56899 61.520988 225.05859 62.154297 C 227.9054 65.836668 224.34885 66.301629 228.81641 67.607422 C 233.28396 68.913215 230.53807 66.606664 234.91992 65.037109 C 239.30178 63.467555 238.64709 66.993823 241.26953 63.148438 C 242.13724 61.876082 242.3787 61.235495 242.31641 60.775391 C 243.10205 60.806005 244.02947 60.097529 246.47266 61.330078 C 250.62827 63.426518 247.61867 65.377411 252.21289 64.630859 C 256.80711 63.884308 253.3353 62.986029 256.61328 59.681641 C 258.16481 58.117619 259.17994 58.07093 259.9043 57.966797 C 260.1757 60.258464 258.39677 60.344887 261.68945 62.251953 C 265.71715 64.584727 263.60082 61.689154 268.23047 61.208984 C 272.86011 60.728814 271.38248 63.996435 274.8457 60.886719 C 275.23515 60.537037 275.51245 60.256834 275.74414 60 C 275.85201 60.124611 275.95776 60.241135 276.07031 60.386719 C 278.91712 64.069094 275.36252 64.534051 279.83008 65.839844 C 284.29764 67.145637 281.55175 64.839086 285.93359 63.269531 C 289.53534 61.979412 289.73579 64.123191 291.14844 62.794922 C 290.99941 63.945085 290.56775 64.366564 293.18945 65.650391 C 297.36964 67.697394 295.05754 64.957241 299.64258 64.15625 C 304.22762 63.355259 302.98019 66.71803 306.21875 63.375 C 307.35195 62.205248 307.67406 61.613166 307.65234 61.136719 C 308.22061 61.186684 308.92603 61.363116 309.85938 61.833984 C 314.01499 63.930424 311.00539 65.88327 315.59961 65.136719 C 315.94599 65.080432 316.16668 65.019916 316.42773 64.960938 L 316.42773 56.091797 L 205.71484 56.091797 z "
         style="fill:#e3dedb;fill-opacity:1;stroke:none;stroke-width:1.88976383" />
    </g>
    <g
       id="g877"
       inkscape:export-filename="D:\xampp\htdocs\proyectos\go-jetpack-game\assets\img\floors\lava.png"
       inkscape:export-xdpi="200"
       inkscape:export-ydpi="200">
      <g
         id="g869">
        <path
           style="fill:#c83737;fill-opacity:1;stroke:none;stroke-width:1.88976383"
           d="M 81.525388 113.27344 C 81.344387 113.88154 81.122574 114.31543 80.890624 114.64648 C 81.055147 114.01162 81.296893 113.60016 81.525388 113.27344 L 81.525388 113.27344 "
           id="path845"
           transform="scale(0.26458333)" />
        <path
           style="fill:#c83737;fill-opacity:1;stroke:none;stroke-width:0.44836593"
           d="m 41.218089,31.818283 c 0.0062,-0.04194 0.01227,-0.087 0.01828,-0.135453 0.150989,-1.217099 -0.259131,-1.475364 -0.712244,-2.570385 -0.453113,-1.09502 0.308613,-1.04522 -0.57553,-1.599904 -0.884143,-0.554683 -0.398823,0.177647 -1.376284,0.375172 -0.977461,0.197524 -0.703795,-0.687734 -1.401217,0.186552 -0.252947,0.317095 -0.319508,0.472908 -0.310411,0.601514 -0.125877,-0.006 -0.286249,-0.049 -0.50364,-0.181385 -0.889371,-0.541602 -0.254505,-1.067173 -1.230013,-0.855244 -0.915377,0.198866 -0.3196,0.410639 -0.811973,1.166855 -0.03252,-0.05977 -0.05906,-0.113181 -0.105964,-0.188619 -0.605682,-0.974296 -0.421616,-0.05397 -1.372129,-0.39946 -0.950513,-0.34549 -0.396633,-0.997672 -1.32891,-0.582393 -0.471311,0.209942 -0.225533,-0.07771 -0.567114,0.134505 -0.254232,-0.458301 -0.177799,-0.366004 -0.73669,-0.218853 -0.749812,-0.540063 -0.540468,-0.298903 -0.905596,-0.378944 0,0 -0.304854,0.263082 -0.388376,0.0042 -0.07781,-0.0019 -0.179412,-0.01608 -0.302536,-2.2e-4 -0.984999,0.127045 -1.586807,0.221184 -0.866187,0.872739 0.505246,0.456823 -0.686522,0.350054 -0.846879,0.436149 -0.08644,-0.602271 0.291092,-0.652126 -0.432167,-1.105876 -0.884143,-0.554683 -0.399239,0.177647 -1.376699,0.375171 -0.97746,0.197525 -0.703796,-0.68825 -1.401217,0.186034 -0.654793,0.820849 -0.06919,0.564975 -0.120092,1.537891 -0.03855,-0.09944 -0.10329,-0.223851 -0.208603,-0.393256 -0.605683,-0.974296 -0.421616,-0.05345 -1.372129,-0.398944 -0.950513,-0.34549 -0.396633,-0.998185 -1.328911,-0.582909 -0.853555,0.380209 -0.29054,0.47048 -0.617084,1.263489 -0.01313,-0.115149 -0.0619,-0.273635 -0.167881,-0.522449 -0.463525,-1.08826 -0.620571,-0.892122 -1.297329,-0.683678 -0.889372,-0.541605 -0.254506,-1.067692 -1.230013,-0.855763 -0.880317,0.191249 -0.36593,0.396774 -0.76294,1.084688 -0.238254,-0.381555 -0.36828,0.146887 -1.062964,-0.353467 -0.856927,-0.617212 -0.532165,-0.503736 -1.1789,-0.43098 -0.986931,0.111027 -0.258813,-0.111707 -0.995644,0.711065 -0.736832,0.822778 -0.891064,-0.106108 -1.098284,1.098127 -0.182803,1.062323 0.143085,1.647156 0.498088,2.293609"
           id="path843"
           inkscape:connector-curvature="0"
           sodipodi:nodetypes="ccssscccscccccccccscssccscscccscsscsc" />
        <path
           id="path847"
           d="m 12.16902,31.818283 c -0.0055,-0.0363 -0.01089,-0.0753 -0.01622,-0.117225 -0.133987,-1.053316 0.229954,-1.419245 0.632046,-2.36691 0.402092,-0.947664 2.736052,-0.993792 3.520641,-1.473833 2.981301,0.872198 1.210125,1.38904 3.300947,0.699689 0.843485,-0.298999 0.351973,-0.863417 1.179276,-0.504022 0.41824,0.181691 0.452136,0.286931 0.447669,0.459746 0.225605,-0.396628 0.328248,0.10249 0.96503,-0.34481 0.665382,-0.467387 0.298025,-0.836937 0.78139,-0.848381 v -10e-6 c 0.06905,-0.0017 0.155506,0.0042 0.264766,0.01789 0.874087,0.109945 0.22967,0.361283 0.883535,1.073338 0.403247,0.439132 0.609221,0.302947 0.751522,0.377457 0.07671,-0.521224 -0.258316,-0.564371 0.383503,-0.95706 0.78459,-0.48004 0.354286,0.153741 1.221684,0.324685 0.867399,0.170944 0.62455,-0.595633 1.243441,0.160999 0.581064,0.710388 0.0614,0.488948 0.106569,1.330938 0.03421,-0.08605 0.09166,-0.193727 0.185115,-0.340334 0.537484,-0.843187 0.374143,-0.04626 1.217627,-0.34526 0.843485,-0.298997 0.351974,-0.86386 1.179277,-0.504467 0.757443,0.329045 0.257825,0.407168 0.5476,1.093463 0.01165,-0.09965 0.05493,-0.236811 0.148977,-0.452144 0.411332,-0.941814 0.362023,-0.122958 1.151251,-0.591676 0.789229,-0.468721 0.225848,-0.924013 1.091514,-0.740605 0.781192,0.165513 0.324726,0.343382 0.677032,0.938725 0.211427,-0.330211 0.326812,0.127119 0.943275,-0.305903 0.760438,-0.534154 0.172068,-0.940889 1.046155,-0.830941 0.874089,0.109945 0.229672,0.361283 0.883537,1.073336 0.653864,0.712057 0.790729,-0.09183 0.974617,0.950352 0.162219,0.919368 -0.126974,1.567918 -0.442003,2.12738"
           style="fill:#c83737;fill-opacity:1;stroke:none;stroke-width:0.39292404"
           inkscape:connector-curvature="0"
           sodipodi:nodetypes="ccsccscccccsccsccccscccccsccsc" />
        <path
           inkscape:connector-curvature="0"
           style="fill:#c83737;fill-opacity:1;stroke:none;stroke-width:0.41662878"
           d="m 12.419239,31.256419 c -0.0062,-0.0363 -0.01224,-0.0753 -0.01824,-0.117225 -0.150641,-1.053316 -0.286168,0.120046 -0.301788,-1.392099 -0.0066,-0.642816 -5.76e-4,-2.559558 -0.0043,-2.720487 -0.0026,-0.113612 0.116701,0.05443 0.353785,-0.15915 0.132779,-0.119617 0.416127,0.402618 0.416127,0.402618 0.164422,-0.0063 0.163339,0.08472 0.328764,0.08347 0.165425,-0.0013 0.321965,-0.228484 0.500955,-0.219886 0.17899,0.0086 0.321966,0.194549 0.527082,0.217809 0.205117,0.02326 0.664472,-0.245619 0.908276,-0.20288 0.38221,0.06236 0.940214,-0.215162 1.243481,0.357724 l 0.284641,-0.09749 c 0.384505,-0.113779 0.39417,0.943156 0.611062,0.828579 0.887327,-0.468718 0.253919,-0.923564 1.227186,-0.740154 0.913274,0.172104 0.318865,0.35538 0.810106,1.009833 0.03244,-0.05173 0.05892,-0.09795 0.105722,-0.163237 0.604288,-0.843186 0.220195,-0.31398 1.168524,-0.612975 0.948328,-0.298999 0.596173,-0.596147 1.526308,-0.236752 0.470227,0.181691 0.508336,0.286931 0.503314,0.459746 0.344511,-0.135829 0.657781,-0.252999 0.946906,-0.352836 0.289126,-0.09984 0.554108,-0.182343 0.802045,-0.248843 0.247936,-0.0665 0.526074,0.119239 0.747019,0.08342 0.220944,-0.03582 0.384695,-0.293195 0.592843,-0.300986 0.208149,-0.0078 0.354391,0.26947 0.563941,0.28702 0.209551,0.01758 0.48241,-0.22448 0.707558,-0.18418 0.225149,0.0403 0.461646,0.09129 0.71659,0.151656 0.254943,0.06036 0.528333,0.130092 0.827269,0.207862 0.975215,0.170944 0.70218,-0.595633 1.397997,0.160999 0.653289,0.710388 0.06903,0.488948 0.119816,1.330938 0.03846,-0.08605 0.103054,-0.193727 0.208125,-0.340334 0.604291,-0.843187 0.420647,-0.04626 1.368975,-0.34526 0.948328,-0.298997 0.395722,-0.86386 1.325857,-0.504467 0.851592,0.329045 0.289873,0.407168 0.615666,1.093463 0.0131,-0.09965 0.06176,-0.236811 0.167494,-0.452144 0.46246,-0.941814 0.407022,-0.122958 1.29435,-0.591676 0.887328,-0.468721 0.66733,-0.616907 1.191751,-0.6343 0.582999,0.08283 0.447772,-0.211775 0.843869,0.383573 0.237707,-0.330211 0.320186,0.575966 1.013274,0.142944 0.854958,-0.534154 0.193455,-0.411722 1.176189,-0.301774 0.982736,0.109945 0.672471,-0.987685 1.407609,-0.275633 0,0 0.749389,-0.504749 0.752886,-0.285321 0.03613,2.26724 -0.07252,2.369954 -0.07252,1.938671"
           id="path851"
           sodipodi:nodetypes="ccssscsssccccscccscssssssscccccscccccsccsc" />
        <path
           style="fill:#c83737;fill-opacity:1;stroke:none;stroke-width:0.44704163"
           d="M 12.095239,28.764975 H 41.388394 V 33.61057 H 12.095239 Z"
           id="rect853"
           inkscape:connector-curvature="0"
           sodipodi:nodetypes="ccccc" />
      </g>
    </g>
    <path
       id="path876"
       d="m 12.504663,37.433888 c -0.02046,-0.0028 -0.03921,0.0021 -0.05581,0.01705 -0.237084,0.21358 -0.356583,0.04555 -0.353983,0.159163 0.0024,0.102843 0.0023,0.992148 0.0026,1.738394 h -0.0021 v 4.845183 h 29.2928 v -4.845183 h -0.0046 c 0.0176,-0.30598 0.0304,-0.819851 0.01499,-1.786972 -0.0035,-0.219426 -0.752927,0.285256 -0.752927,0.285256 -0.538901,-0.521978 -0.517692,-0.07265 -0.85421,0.161747 -0.386903,-0.208883 -0.433033,-0.07954 -0.586013,0.109038 -0.925478,-0.108657 -0.300342,-0.220403 -1.143598,0.30644 -0.01657,0.01035 -0.03115,0.01647 -0.04703,0.02532 -0.279342,-0.108 -0.326832,-0.328753 -0.617532,-0.04806 -0.144224,-0.133834 -0.226605,-0.290177 -0.348816,-0.120407 -0.396097,-0.595347 -0.260877,-0.300609 -0.843875,-0.383436 -0.346046,0.01147 -0.386686,0.09089 -0.616501,0.270782 -0.0096,0.0043 -0.01813,0.0094 -0.02636,0.01447 -0.09201,-0.01554 -0.224594,-0.0058 -0.434599,0.03979 -0.527484,0.114596 -0.552858,0.237109 -0.574125,0.461986 -0.340257,0.03225 -0.440642,-0.172143 -0.650089,0.11679 -0.01092,-0.009 -0.02229,-0.02007 -0.03256,-0.02687 -0.01999,-0.202515 -0.03717,-0.320098 -0.514181,-0.421164 -0.388323,-0.08227 -0.486579,-0.03203 -0.55087,0.0863 -0.296325,-0.09916 -0.411533,-0.07703 -0.489376,0.0093 -0.224811,-0.285441 -0.152815,-0.521676 -0.807701,-0.22996 -0.471313,0.209942 -0.225828,-0.07786 -0.567407,0.134358 -0.254233,-0.458301 -0.177499,-0.365741 -0.736391,-0.218591 -0.749811,-0.540062 -0.540758,-0.299265 -0.905886,-0.379304 0,0 -0.30457,0.263533 -0.388091,0.0046 -0.07781,-0.0019 -0.1797,-0.01637 -0.302823,-5.16e-4 -0.430202,0.05549 -0.777643,0.107357 -0.983404,0.199472 -0.2296,-0.05354 -0.448368,-0.101224 -0.653706,-0.137978 -0.158221,-0.02832 -0.339098,0.08068 -0.505912,0.143145 -8.63e-4,-5.42e-4 -0.0012,-10e-4 -0.0021,-0.0016 -0.337285,-0.211603 -0.475019,-0.234969 -0.571023,-0.173117 -0.0606,-0.04096 -0.122431,-0.07393 -0.192237,-0.07131 -0.208148,0.0078 -0.372301,0.264938 -0.593245,0.300757 -0.220945,0.03582 -0.498789,-0.149699 -0.746725,-0.0832 -0.19457,0.05219 -0.403706,0.11711 -0.622701,0.18965 -0.04887,-0.09864 -0.162637,-0.160115 -0.491959,-0.201538 -0.10926,-0.01369 -0.195534,-0.01978 -0.264584,-0.01809 -0.332743,0.0079 -0.267886,0.18773 -0.40876,0.450104 -0.05409,-0.08607 -0.178913,-0.168362 -0.464054,-0.278537 -0.930135,-0.359395 -0.578194,-0.0618 -1.526522,0.237196 -0.863027,0.2721 -0.653646,-0.09325 -1.05885,0.465603 -0.137716,-0.173048 -0.269214,-0.213423 -0.435633,-0.186034 -0.04157,-0.270814 0.02959,-0.396877 -0.590145,-0.513665 -0.261374,-0.04925 -0.404863,-0.05087 -0.49506,-0.02015 -0.07765,-0.189555 -0.14815,-0.282924 -0.658358,-0.172082 -0.258995,0.05627 -0.395528,0.114342 -0.471805,0.185002 -0.05594,-0.06953 -0.124252,-0.107368 -0.212907,-0.08113 l -0.284738,0.09767 c -0.303266,-0.572886 -0.861124,-0.29524 -1.243334,-0.3576 -0.243804,-0.04274 -0.702838,0.22583 -0.907955,0.20257 -0.205116,-0.02326 -0.34811,-0.208957 -0.5271,-0.217559 -0.17899,-0.0086 -0.335836,0.218327 -0.501261,0.219626 -0.165425,0.0013 -0.16424,-0.0895 -0.328662,-0.0832 0,0 -0.216999,-0.399788 -0.360185,-0.419613 z"
       style="fill:#c83737;fill-opacity:1;stroke:none;stroke-width:0.5"
       inkscape:connector-curvature="0" />
    <g
       id="g908">
      <path
         inkscape:connector-curvature="0"
         id="path834"
         d="m 12.504663,48.017221 c -0.02046,-0.0028 -0.03921,0.0021 -0.05581,0.01706 -0.237084,0.213576 -0.356583,0.04555 -0.353983,0.159162 0.0024,0.102844 0.0023,0.992148 0.0026,1.738395 h -0.0021 v 4.845182 h 7.323067 v -5.520076 c -0.102693,-0.08266 -0.207708,-0.100084 -0.33228,-0.07958 -0.04157,-0.270815 0.02959,-0.396878 -0.590145,-0.513665 -0.261374,-0.04925 -0.404863,-0.05087 -0.49506,-0.02015 -0.07765,-0.189555 -0.14815,-0.282924 -0.658358,-0.172082 -0.258995,0.05627 -0.395528,0.114342 -0.471805,0.185002 -0.05594,-0.06953 -0.124252,-0.107368 -0.212907,-0.08113 l -0.284738,0.09767 c -0.303266,-0.572887 -0.861124,-0.295244 -1.243334,-0.357601 -0.243804,-0.04274 -0.702838,0.22583 -0.907955,0.202571 -0.205116,-0.02326 -0.34811,-0.208958 -0.5271,-0.217559 -0.17899,-0.0086 -0.335836,0.218326 -0.501261,0.219625 -0.165425,0.0013 -0.16424,-0.0895 -0.328662,-0.0832 0,0 -0.216999,-0.399788 -0.360185,-0.419614 z"
         style="fill:#c83737;fill-opacity:1;stroke:none;stroke-width:0.5" />
      <path
         inkscape:connector-curvature="0"
         id="path879"
         d="m 25.699206,48.301443 c -0.208148,0.0078 -0.372301,0.264937 -0.593245,0.300757 -0.220945,0.03582 -0.498789,-0.149699 -0.746725,-0.0832 -0.19457,0.05219 -0.403706,0.117112 -0.622701,0.18965 -0.04887,-0.09864 -0.162637,-0.160115 -0.491959,-0.201538 -0.10926,-0.01369 -0.195534,-0.01977 -0.264584,-0.01809 -0.332743,0.0079 -0.267886,0.18773 -0.40876,0.450104 -0.05409,-0.08607 -0.178913,-0.168363 -0.464054,-0.278538 -0.930135,-0.359394 -0.578194,-0.0618 -1.526522,0.237197 -0.863027,0.2721 -0.653646,-0.09325 -1.05885,0.465603 -0.03463,-0.04351 -0.06886,-0.07868 -0.103353,-0.106453 v 5.520076 h 7.323066 v -6.340692 c -0.09259,0.03192 -0.186814,0.07734 -0.276984,0.111104 -8.63e-4,-5.42e-4 -0.0012,-9.5e-4 -0.0021,-0.0016 -0.337284,-0.211604 -0.475019,-0.234969 -0.571023,-0.173117 -0.0606,-0.04096 -0.122431,-0.07393 -0.192237,-0.07131 z"
         style="fill:#c83737;fill-opacity:1;stroke:none;stroke-width:0.5" />
      <path
         inkscape:connector-curvature="0"
         id="path882"
         d="m 28.776022,48.336582 c -0.05059,-0.0019 -0.106905,-0.0017 -0.168465,0.0062 -0.430202,0.05549 -0.777643,0.107357 -0.983404,0.199472 -0.2296,-0.05354 -0.448368,-0.101222 -0.653706,-0.137978 -0.0727,-0.01301 -0.150228,0.0049 -0.228928,0.03204 v 6.340697 h 7.323585 v -5.53403 c -0.05058,0.0188 -0.101918,0.05835 -0.162264,0.141595 -0.01092,-0.009 -0.02229,-0.02007 -0.03256,-0.02687 -0.01999,-0.202515 -0.03717,-0.320099 -0.514181,-0.421164 -0.388321,-0.08227 -0.486579,-0.03203 -0.55087,0.0863 -0.296325,-0.09916 -0.411533,-0.07703 -0.489376,0.0093 -0.224811,-0.285441 -0.152815,-0.521677 -0.807701,-0.22996 -0.471313,0.209941 -0.22583,-0.07786 -0.567407,0.134358 -0.254233,-0.458301 -0.177499,-0.365742 -0.736391,-0.218591 -0.749811,-0.540062 -0.540758,-0.299265 -0.905886,-0.379304 0,0 -0.30457,0.263583 -0.388091,0.0046 -0.0389,-9.5e-4 -0.08377,-0.0048 -0.134358,-0.0067 z"
         style="fill:#c83737;fill-opacity:1;stroke:none;stroke-width:0.5" />
      <path
         inkscape:connector-curvature="0"
         id="path885"
         d="m 41.365434,48.094221 c -0.145791,-0.0504 -0.719854,0.335896 -0.719854,0.335896 -0.538901,-0.521978 -0.517692,-0.07265 -0.85421,0.161748 -0.386903,-0.208883 -0.433031,-0.07954 -0.586013,0.109038 -0.925478,-0.10866 -0.300342,-0.220404 -1.143598,0.30644 -0.01657,0.01035 -0.03115,0.01647 -0.04703,0.02532 -0.279342,-0.108001 -0.326832,-0.328753 -0.617532,-0.04806 -0.144224,-0.133834 -0.226605,-0.290177 -0.348816,-0.120407 -0.396097,-0.595347 -0.260879,-0.300612 -0.843875,-0.383437 -0.346046,0.01147 -0.386686,0.09089 -0.616501,0.270783 -0.0096,0.0043 -0.01812,0.0094 -0.02636,0.01447 -0.09201,-0.01554 -0.224594,-0.0058 -0.434599,0.03979 -0.527484,0.114596 -0.552858,0.237111 -0.574125,0.461986 -0.242223,0.02296 -0.362841,-0.07126 -0.487825,-0.02481 v 5.53403 h 7.323066 v -4.845182 h -0.0046 c 0.002,-0.03528 0.0028,-0.107648 0.0046,-0.148828 v -1.672249 c -0.0056,-0.0075 -0.01297,-0.01316 -0.02274,-0.01654 z"
         style="fill:#c83737;fill-opacity:1;stroke:none;stroke-width:0.5" />
    </g>
    <g
       id="g914">
      <path
         style="fill:#c83737;fill-opacity:1;stroke:none;stroke-width:0.5"
         d="m 27.151553,58.600555 c -0.02046,-0.0028 -0.03921,0.0021 -0.05581,0.01706 -0.237084,0.213576 -0.356583,0.04555 -0.353983,0.159162 0.0024,0.102844 0.0023,0.992148 0.0026,1.738395 h -0.0021 v 4.845182 h 7.323067 v -5.520076 c -0.102693,-0.08266 -0.207708,-0.100084 -0.33228,-0.07958 -0.04157,-0.270815 0.02959,-0.396878 -0.590145,-0.513665 -0.261374,-0.04925 -0.404863,-0.05087 -0.49506,-0.02015 -0.07765,-0.189555 -0.14815,-0.282924 -0.658358,-0.172082 -0.258995,0.05627 -0.395528,0.114342 -0.471805,0.185002 -0.05594,-0.06953 -0.124252,-0.107368 -0.212907,-0.08113 l -0.284738,0.09767 C 30.716768,58.683456 30.15891,58.961099 29.7767,58.898742 c -0.243804,-0.04274 -0.702838,0.22583 -0.907955,0.202571 -0.205116,-0.02326 -0.34811,-0.208958 -0.5271,-0.217559 -0.17899,-0.0086 -0.335836,0.218326 -0.501261,0.219625 -0.165425,0.0013 -0.16424,-0.0895 -0.328662,-0.0832 0,0 -0.216999,-0.399788 -0.360185,-0.419614 z"
         id="path888"
         inkscape:connector-curvature="0" />
      <path
         style="fill:#c83737;fill-opacity:1;stroke:none;stroke-width:0.5"
         d="m 40.34608,58.884786 c -0.208148,0.0078 -0.372301,0.264937 -0.593245,0.300757 -0.220945,0.03582 -0.498789,-0.149699 -0.746725,-0.0832 -0.19457,0.05219 -0.403706,0.117112 -0.622701,0.18965 -0.04887,-0.09864 -0.162637,-0.160115 -0.491959,-0.201538 -0.10926,-0.01369 -0.195534,-0.01977 -0.264584,-0.01809 -0.332743,0.0079 -0.267886,0.18773 -0.40876,0.450104 -0.05409,-0.08607 -0.178913,-0.168363 -0.464054,-0.278538 -0.930135,-0.359394 -0.578194,-0.0618 -1.526522,0.237197 -0.863027,0.2721 -0.653646,-0.09325 -1.05885,0.465603 -0.03463,-0.04351 -0.06886,-0.07868 -0.103353,-0.106453 v 5.520076 h 7.323066 v -6.340692 c -0.09259,0.03192 -0.186814,0.07734 -0.276984,0.111104 -8.63e-4,-5.42e-4 -0.0012,-9.5e-4 -0.0021,-0.0016 -0.337284,-0.211604 -0.475019,-0.234969 -0.571023,-0.173117 -0.0606,-0.04096 -0.122431,-0.07393 -0.192237,-0.07131 z"
         id="path890"
         inkscape:connector-curvature="0" />
      <path
         style="fill:#c83737;fill-opacity:1;stroke:none;stroke-width:0.5"
         d="m 14.128449,58.919923 c -0.05059,-0.0019 -0.106905,-0.0017 -0.168465,0.0062 -0.430202,0.05549 -0.777643,0.107357 -0.983404,0.199472 -0.2296,-0.05354 -0.448368,-0.101222 -0.653706,-0.137978 -0.0727,-0.01301 -0.150228,0.0049 -0.228928,0.03204 v 6.340697 h 7.323585 v -5.53403 c -0.05058,0.0188 -0.101918,0.05835 -0.162264,0.141595 -0.01092,-0.009 -0.02229,-0.02007 -0.03256,-0.02687 -0.01999,-0.202515 -0.03717,-0.320099 -0.514181,-0.421164 -0.388321,-0.08227 -0.486579,-0.03203 -0.55087,0.0863 -0.296325,-0.09916 -0.411533,-0.07703 -0.489376,0.0093 -0.224811,-0.285441 -0.152815,-0.521677 -0.807701,-0.22996 -0.471313,0.209941 -0.22583,-0.07786 -0.567407,0.134358 -0.254233,-0.458301 -0.177499,-0.365742 -0.736391,-0.218591 -0.749811,-0.540062 -0.540758,-0.299265 -0.905886,-0.379304 0,0 -0.30457,0.263583 -0.388091,0.0046 -0.0389,-9.5e-4 -0.08377,-0.0048 -0.134358,-0.0067 z"
         id="path892"
         inkscape:connector-curvature="0" />
      <path
         style="fill:#c83737;fill-opacity:1;stroke:none;stroke-width:0.5"
         d="m 26.719532,58.677567 c -0.145791,-0.0504 -0.719854,0.335896 -0.719854,0.335896 -0.538901,-0.521978 -0.517692,-0.07265 -0.85421,0.161748 -0.386903,-0.208883 -0.433031,-0.07954 -0.586013,0.109038 -0.925478,-0.10866 -0.300342,-0.220404 -1.143598,0.30644 -0.01657,0.01035 -0.03115,0.01647 -0.04703,0.02532 -0.279342,-0.108001 -0.326832,-0.328753 -0.617532,-0.04806 -0.144224,-0.133834 -0.226605,-0.290177 -0.348816,-0.120407 -0.396097,-0.595347 -0.260879,-0.300612 -0.843875,-0.383437 -0.346046,0.01147 -0.386686,0.09089 -0.616501,0.270783 -0.0096,0.0043 -0.01812,0.0094 -0.02636,0.01447 -0.09201,-0.01554 -0.224594,-0.0058 -0.434599,0.03979 -0.527484,0.114596 -0.552858,0.237111 -0.574125,0.461986 -0.242223,0.02296 -0.362841,-0.07126 -0.487825,-0.02481 v 5.53403 h 7.323066 v -4.845182 h -0.0046 c 0.002,-0.03528 0.0028,-0.107648 0.0046,-0.148828 v -1.672249 c -0.0056,-0.0075 -0.01297,-0.01316 -0.02274,-0.01654 z"
         id="path894"
         inkscape:connector-curvature="0" />
    </g>
    <g
       id="g920">
      <path
         inkscape:connector-curvature="0"
         id="path896"
         d="m 19.828487,69.183889 c -0.02046,-0.0028 -0.03921,0.0021 -0.05581,0.01706 -0.237084,0.213576 -0.356583,0.04555 -0.353983,0.159162 0.0024,0.102844 0.0023,0.992148 0.0026,1.738395 h -0.0021 v 4.845182 h 7.323067 v -5.520076 c -0.102693,-0.08266 -0.207708,-0.100084 -0.33228,-0.07958 -0.04157,-0.270815 0.02959,-0.396878 -0.590145,-0.513665 -0.261374,-0.04925 -0.404863,-0.05087 -0.49506,-0.02015 -0.07765,-0.189555 -0.14815,-0.282924 -0.658358,-0.172082 -0.258995,0.05627 -0.395528,0.114342 -0.471805,0.185002 -0.05594,-0.06953 -0.124252,-0.107368 -0.212907,-0.08113 l -0.284738,0.09767 c -0.303266,-0.572887 -0.861124,-0.295244 -1.243334,-0.357601 -0.243804,-0.04274 -0.702838,0.22583 -0.907955,0.202571 -0.205116,-0.02326 -0.34811,-0.208958 -0.5271,-0.217559 -0.17899,-0.0086 -0.335836,0.218326 -0.501261,0.219625 -0.165425,0.0013 -0.16424,-0.0895 -0.328662,-0.0832 0,0 -0.216999,-0.399788 -0.360185,-0.419614 z"
         style="fill:#c83737;fill-opacity:1;stroke:none;stroke-width:0.5" />
      <path
         inkscape:connector-curvature="0"
         id="path898"
         d="m 18.376881,69.46812 c -0.208148,0.0078 -0.372301,0.264937 -0.593245,0.300757 -0.220945,0.03582 -0.498789,-0.149699 -0.746725,-0.0832 -0.19457,0.05219 -0.403706,0.117112 -0.622701,0.18965 -0.04887,-0.09864 -0.162637,-0.160115 -0.491959,-0.201538 -0.10926,-0.01369 -0.195534,-0.01977 -0.264584,-0.01809 -0.332743,0.0079 -0.267886,0.18773 -0.40876,0.450104 -0.05409,-0.08607 -0.178913,-0.168363 -0.464054,-0.278538 -0.930135,-0.359394 -0.578194,-0.0618 -1.526522,0.237197 -0.863027,0.2721 -0.653646,-0.09325 -1.05885,0.465603 -0.03463,-0.04351 -0.06886,-0.07868 -0.103353,-0.106453 v 5.520076 h 7.323066 v -6.340692 c -0.09259,0.03192 -0.186814,0.07734 -0.276984,0.111104 -8.63e-4,-5.42e-4 -0.0012,-9.5e-4 -0.0021,-0.0016 -0.337284,-0.211604 -0.475019,-0.234969 -0.571023,-0.173117 -0.0606,-0.04096 -0.122431,-0.07393 -0.192237,-0.07131 z"
         style="fill:#c83737;fill-opacity:1;stroke:none;stroke-width:0.5" />
      <path
         inkscape:connector-curvature="0"
         id="path900"
         d="m 36.09983,69.503257 c -0.05059,-0.0019 -0.106905,-0.0017 -0.168465,0.0062 -0.430202,0.05549 -0.777643,0.107357 -0.983404,0.199472 -0.2296,-0.05354 -0.448368,-0.101222 -0.653706,-0.137978 -0.0727,-0.01301 -0.150228,0.0049 -0.228928,0.03204 v 6.340697 h 7.323585 v -5.53403 c -0.05058,0.0188 -0.101918,0.05835 -0.162264,0.141595 -0.01092,-0.009 -0.02229,-0.02007 -0.03256,-0.02687 -0.01999,-0.202515 -0.03717,-0.320099 -0.514181,-0.421164 -0.388321,-0.08227 -0.486579,-0.03203 -0.55087,0.0863 -0.296325,-0.09916 -0.411533,-0.07703 -0.489376,0.0093 -0.224811,-0.285441 -0.152815,-0.521677 -0.807701,-0.22996 -0.471313,0.209941 -0.22583,-0.07786 -0.567407,0.134358 -0.254233,-0.458301 -0.177499,-0.365742 -0.736391,-0.218591 -0.749811,-0.540062 -0.540758,-0.299265 -0.905886,-0.379304 0,0 -0.30457,0.263583 -0.388091,0.0046 -0.0389,-9.5e-4 -0.08377,-0.0048 -0.134358,-0.0067 z"
         style="fill:#c83737;fill-opacity:1;stroke:none;stroke-width:0.5" />
      <path
         inkscape:connector-curvature="0"
         id="path902"
         d="m 34.042599,69.260901 c -0.145791,-0.0504 -0.719854,0.335896 -0.719854,0.335896 -0.538901,-0.521978 -0.517692,-0.07265 -0.85421,0.161748 -0.386903,-0.208883 -0.433031,-0.07954 -0.586013,0.109038 -0.925478,-0.10866 -0.300342,-0.220404 -1.143598,0.30644 -0.01657,0.01035 -0.03115,0.01647 -0.04703,0.02532 -0.279342,-0.108001 -0.326832,-0.328753 -0.617532,-0.04806 -0.144224,-0.133834 -0.226605,-0.290177 -0.348816,-0.120407 -0.396097,-0.595347 -0.260879,-0.300612 -0.843875,-0.383437 -0.346046,0.01147 -0.386686,0.09089 -0.616501,0.270783 -0.0096,0.0043 -0.01812,0.0094 -0.02636,0.01447 -0.09201,-0.01554 -0.224594,-0.0058 -0.434599,0.03979 -0.527484,0.114596 -0.552858,0.237111 -0.574125,0.461986 -0.242223,0.02296 -0.362841,-0.07126 -0.487825,-0.02481 v 5.53403 h 7.323066 v -4.845182 h -0.0046 c 0.002,-0.03528 0.0028,-0.107648 0.0046,-0.148828 v -1.672249 c -0.0056,-0.0075 -0.01297,-0.01316 -0.02274,-0.01654 z"
         style="fill:#c83737;fill-opacity:1;stroke:none;stroke-width:0.5" />
    </g>
  </g>
</svg>
